<mxfile host="Electron" agent="Mozilla/5.0 (Windows NT 10.0; Win64; x64) AppleWebKit/537.36 (KHTML, like Gecko) draw.io/26.0.15 Chrome/132.0.6834.196 Electron/34.2.0 Safari/537.36" version="26.0.15" pages="7">
  <diagram name="Page-1" id="zl8OlRgdgr9KuBKUyWAV">
    <mxGraphModel dx="1985" dy="1398" grid="0" gridSize="10" guides="1" tooltips="1" connect="1" arrows="1" fold="1" page="1" pageScale="1" pageWidth="1700" pageHeight="1100" background="none" math="0" shadow="0">
      <root>
        <mxCell id="0" />
        <mxCell id="1" parent="0" />
        <mxCell id="I7RJczojcU9wBOJDffn9-1" value="" style="whiteSpace=wrap;html=1;aspect=fixed;shadow=0;rounded=0;labelBackgroundColor=none;fillColor=#A8DADC;strokeColor=#457B9D;fontColor=#1D3557;" parent="1" vertex="1">
          <mxGeometry x="564.5" y="237" width="592" height="592" as="geometry" />
        </mxCell>
        <mxCell id="I7RJczojcU9wBOJDffn9-2" value="" style="endArrow=classic;html=1;rounded=0;entryX=-0.005;entryY=0.242;entryDx=0;entryDy=0;entryPerimeter=0;labelBackgroundColor=none;strokeColor=#457B9D;fontColor=default;" parent="1" edge="1">
          <mxGeometry width="50" height="50" relative="1" as="geometry">
            <mxPoint x="414.46" y="401" as="sourcePoint" />
            <mxPoint x="564.5" y="401.264" as="targetPoint" />
          </mxGeometry>
        </mxCell>
        <mxCell id="I7RJczojcU9wBOJDffn9-3" value="" style="endArrow=classic;html=1;rounded=0;entryX=-0.005;entryY=0.242;entryDx=0;entryDy=0;entryPerimeter=0;labelBackgroundColor=none;strokeColor=#457B9D;fontColor=default;" parent="1" edge="1">
          <mxGeometry width="50" height="50" relative="1" as="geometry">
            <mxPoint x="414.5" y="264" as="sourcePoint" />
            <mxPoint x="564.5" y="264" as="targetPoint" />
          </mxGeometry>
        </mxCell>
        <mxCell id="I7RJczojcU9wBOJDffn9-4" value="" style="endArrow=classic;html=1;rounded=0;entryX=-0.005;entryY=0.242;entryDx=0;entryDy=0;entryPerimeter=0;labelBackgroundColor=none;strokeColor=#457B9D;fontColor=default;" parent="1" edge="1">
          <mxGeometry width="50" height="50" relative="1" as="geometry">
            <mxPoint x="414.46" y="501" as="sourcePoint" />
            <mxPoint x="564.5" y="501.264" as="targetPoint" />
          </mxGeometry>
        </mxCell>
        <mxCell id="I7RJczojcU9wBOJDffn9-5" value="" style="endArrow=classic;html=1;rounded=0;entryX=-0.005;entryY=0.242;entryDx=0;entryDy=0;entryPerimeter=0;labelBackgroundColor=none;strokeColor=#457B9D;fontColor=default;" parent="1" edge="1">
          <mxGeometry width="50" height="50" relative="1" as="geometry">
            <mxPoint x="414.46" y="548" as="sourcePoint" />
            <mxPoint x="564.5" y="548.264" as="targetPoint" />
          </mxGeometry>
        </mxCell>
        <mxCell id="I7RJczojcU9wBOJDffn9-6" value="" style="endArrow=classic;html=1;rounded=0;entryX=-0.005;entryY=0.242;entryDx=0;entryDy=0;entryPerimeter=0;labelBackgroundColor=none;strokeColor=#457B9D;fontColor=default;" parent="1" edge="1">
          <mxGeometry width="50" height="50" relative="1" as="geometry">
            <mxPoint x="414.46" y="596" as="sourcePoint" />
            <mxPoint x="564.5" y="596.264" as="targetPoint" />
          </mxGeometry>
        </mxCell>
        <mxCell id="I7RJczojcU9wBOJDffn9-7" value="" style="endArrow=classic;html=1;rounded=0;entryX=-0.005;entryY=0.242;entryDx=0;entryDy=0;entryPerimeter=0;labelBackgroundColor=none;strokeColor=#457B9D;fontColor=default;" parent="1" edge="1">
          <mxGeometry width="50" height="50" relative="1" as="geometry">
            <mxPoint x="414.46" y="644" as="sourcePoint" />
            <mxPoint x="564.5" y="644.264" as="targetPoint" />
          </mxGeometry>
        </mxCell>
        <mxCell id="I7RJczojcU9wBOJDffn9-8" value="" style="endArrow=classic;html=1;rounded=0;entryX=-0.005;entryY=0.242;entryDx=0;entryDy=0;entryPerimeter=0;labelBackgroundColor=none;strokeColor=#457B9D;fontColor=default;" parent="1" edge="1">
          <mxGeometry width="50" height="50" relative="1" as="geometry">
            <mxPoint x="414.46" y="736" as="sourcePoint" />
            <mxPoint x="564.5" y="736.264" as="targetPoint" />
          </mxGeometry>
        </mxCell>
        <mxCell id="I7RJczojcU9wBOJDffn9-9" value="" style="endArrow=classic;html=1;rounded=0;entryX=-0.005;entryY=0.242;entryDx=0;entryDy=0;entryPerimeter=0;labelBackgroundColor=none;strokeColor=#457B9D;fontColor=default;" parent="1" edge="1">
          <mxGeometry width="50" height="50" relative="1" as="geometry">
            <mxPoint x="414.46" y="790" as="sourcePoint" />
            <mxPoint x="564.5" y="790.264" as="targetPoint" />
          </mxGeometry>
        </mxCell>
        <mxCell id="I7RJczojcU9wBOJDffn9-10" value="" style="endArrow=classic;html=1;rounded=0;entryX=-0.005;entryY=0.242;entryDx=0;entryDy=0;entryPerimeter=0;labelBackgroundColor=none;strokeColor=#457B9D;fontColor=default;" parent="1" edge="1">
          <mxGeometry width="50" height="50" relative="1" as="geometry">
            <mxPoint x="414.46" y="305" as="sourcePoint" />
            <mxPoint x="564.5" y="305.264" as="targetPoint" />
          </mxGeometry>
        </mxCell>
        <mxCell id="I7RJczojcU9wBOJDffn9-11" value="&lt;font style=&quot;font-size: 20px;&quot;&gt;rst_n&lt;/font&gt;" style="text;html=1;align=center;verticalAlign=middle;resizable=0;points=[];autosize=1;strokeColor=none;fillColor=none;rounded=0;labelBackgroundColor=none;fontColor=#1D3557;" parent="1" vertex="1">
          <mxGeometry x="352.46" y="384" width="62" height="36" as="geometry" />
        </mxCell>
        <mxCell id="I7RJczojcU9wBOJDffn9-12" value="&lt;font style=&quot;font-size: 20px;&quot;&gt;tx_data&lt;/font&gt;" style="text;html=1;align=center;verticalAlign=middle;resizable=0;points=[];autosize=1;strokeColor=none;fillColor=none;rounded=0;labelBackgroundColor=none;fontColor=#1D3557;" parent="1" vertex="1">
          <mxGeometry x="332.5" y="482" width="84" height="36" as="geometry" />
        </mxCell>
        <mxCell id="I7RJczojcU9wBOJDffn9-13" value="&lt;font style=&quot;font-size: 20px;&quot;&gt;cpol&lt;/font&gt;" style="text;html=1;align=center;verticalAlign=middle;resizable=0;points=[];autosize=1;strokeColor=none;fillColor=none;rounded=0;labelBackgroundColor=none;fontColor=#1D3557;" parent="1" vertex="1">
          <mxGeometry x="358" y="530" width="55" height="36" as="geometry" />
        </mxCell>
        <mxCell id="I7RJczojcU9wBOJDffn9-14" value="&lt;font style=&quot;font-size: 20px;&quot;&gt;cpha&lt;/font&gt;" style="text;html=1;align=center;verticalAlign=middle;resizable=0;points=[];autosize=1;strokeColor=none;fillColor=none;rounded=0;labelBackgroundColor=none;fontColor=#1D3557;" parent="1" vertex="1">
          <mxGeometry x="352" y="578" width="61" height="36" as="geometry" />
        </mxCell>
        <mxCell id="I7RJczojcU9wBOJDffn9-15" value="&lt;font style=&quot;font-size: 20px;&quot;&gt;clk&lt;/font&gt;" style="text;html=1;align=center;verticalAlign=middle;resizable=0;points=[];autosize=1;strokeColor=none;fillColor=none;rounded=0;labelBackgroundColor=none;fontColor=#1D3557;" parent="1" vertex="1">
          <mxGeometry x="374.5" y="246" width="42" height="36" as="geometry" />
        </mxCell>
        <mxCell id="I7RJczojcU9wBOJDffn9-16" value="&lt;font style=&quot;font-size: 20px;&quot;&gt;start_transfer&lt;/font&gt;" style="text;html=1;align=center;verticalAlign=middle;resizable=0;points=[];autosize=1;strokeColor=none;fillColor=none;rounded=0;labelBackgroundColor=none;fontColor=#1D3557;" parent="1" vertex="1">
          <mxGeometry x="277" y="626" width="136" height="36" as="geometry" />
        </mxCell>
        <mxCell id="I7RJczojcU9wBOJDffn9-17" value="&lt;font style=&quot;font-size: 20px;&quot;&gt;clk_div&lt;/font&gt;" style="text;html=1;align=center;verticalAlign=middle;resizable=0;points=[];autosize=1;strokeColor=none;fillColor=none;rounded=0;labelBackgroundColor=none;fontColor=#1D3557;" parent="1" vertex="1">
          <mxGeometry x="335" y="287" width="79" height="36" as="geometry" />
        </mxCell>
        <mxCell id="I7RJczojcU9wBOJDffn9-18" value="&lt;font style=&quot;font-size: 20px;&quot;&gt;slave_sel&lt;/font&gt;" style="text;html=1;align=center;verticalAlign=middle;resizable=0;points=[];autosize=1;strokeColor=none;fillColor=none;rounded=0;labelBackgroundColor=none;fontColor=#1D3557;" parent="1" vertex="1">
          <mxGeometry x="312" y="719" width="101" height="36" as="geometry" />
        </mxCell>
        <mxCell id="I7RJczojcU9wBOJDffn9-19" value="&lt;font style=&quot;font-size: 20px;&quot;&gt;spi_miso&lt;/font&gt;" style="text;html=1;align=center;verticalAlign=middle;resizable=0;points=[];autosize=1;strokeColor=none;fillColor=none;rounded=0;labelBackgroundColor=none;fontColor=#1D3557;" parent="1" vertex="1">
          <mxGeometry x="319.5" y="772" width="97" height="36" as="geometry" />
        </mxCell>
        <mxCell id="I7RJczojcU9wBOJDffn9-20" value="" style="endArrow=classic;html=1;rounded=0;entryX=-0.005;entryY=0.242;entryDx=0;entryDy=0;entryPerimeter=0;labelBackgroundColor=none;strokeColor=#457B9D;fontColor=default;" parent="1" edge="1">
          <mxGeometry width="50" height="50" relative="1" as="geometry">
            <mxPoint x="1156.5" y="618" as="sourcePoint" />
            <mxPoint x="1306.54" y="618.264" as="targetPoint" />
          </mxGeometry>
        </mxCell>
        <mxCell id="I7RJczojcU9wBOJDffn9-21" value="" style="endArrow=classic;html=1;rounded=0;entryX=-0.005;entryY=0.242;entryDx=0;entryDy=0;entryPerimeter=0;labelBackgroundColor=none;strokeColor=#457B9D;fontColor=default;" parent="1" edge="1">
          <mxGeometry width="50" height="50" relative="1" as="geometry">
            <mxPoint x="1156.5" y="672" as="sourcePoint" />
            <mxPoint x="1306.54" y="672.264" as="targetPoint" />
          </mxGeometry>
        </mxCell>
        <mxCell id="I7RJczojcU9wBOJDffn9-22" value="&lt;font style=&quot;font-size: 20px;&quot;&gt;slave_clk&lt;/font&gt;" style="text;html=1;align=center;verticalAlign=middle;resizable=0;points=[];autosize=1;strokeColor=none;fillColor=none;rounded=0;labelBackgroundColor=none;fontColor=#1D3557;" parent="1" vertex="1">
          <mxGeometry x="1309.04" y="600" width="100" height="36" as="geometry" />
        </mxCell>
        <mxCell id="I7RJczojcU9wBOJDffn9-23" value="&lt;font style=&quot;font-size: 20px;&quot;&gt;spi_mosi&lt;/font&gt;" style="text;html=1;align=center;verticalAlign=middle;resizable=0;points=[];autosize=1;strokeColor=none;fillColor=none;rounded=0;labelBackgroundColor=none;fontColor=#1D3557;" parent="1" vertex="1">
          <mxGeometry x="1308.04" y="656" width="97" height="36" as="geometry" />
        </mxCell>
        <mxCell id="I7RJczojcU9wBOJDffn9-24" value="" style="endArrow=classic;html=1;rounded=0;entryX=-0.005;entryY=0.242;entryDx=0;entryDy=0;entryPerimeter=0;labelBackgroundColor=none;strokeColor=#457B9D;fontColor=default;" parent="1" edge="1">
          <mxGeometry width="50" height="50" relative="1" as="geometry">
            <mxPoint x="1158" y="504" as="sourcePoint" />
            <mxPoint x="1308.04" y="504.264" as="targetPoint" />
          </mxGeometry>
        </mxCell>
        <mxCell id="I7RJczojcU9wBOJDffn9-25" value="&lt;font style=&quot;font-size: 20px;&quot;&gt;busy&lt;/font&gt;" style="text;html=1;align=center;verticalAlign=middle;resizable=0;points=[];autosize=1;strokeColor=none;fillColor=none;rounded=0;labelBackgroundColor=none;fontColor=#1D3557;" parent="1" vertex="1">
          <mxGeometry x="1309.04" y="486" width="60" height="36" as="geometry" />
        </mxCell>
        <mxCell id="I7RJczojcU9wBOJDffn9-26" value="" style="endArrow=classic;html=1;rounded=0;entryX=-0.005;entryY=0.242;entryDx=0;entryDy=0;entryPerimeter=0;labelBackgroundColor=none;strokeColor=#457B9D;fontColor=default;" parent="1" edge="1">
          <mxGeometry width="50" height="50" relative="1" as="geometry">
            <mxPoint x="1158.04" y="336" as="sourcePoint" />
            <mxPoint x="1308.04" y="336" as="targetPoint" />
          </mxGeometry>
        </mxCell>
        <mxCell id="I7RJczojcU9wBOJDffn9-27" value="" style="endArrow=classic;html=1;rounded=0;entryX=-0.005;entryY=0.242;entryDx=0;entryDy=0;entryPerimeter=0;labelBackgroundColor=none;strokeColor=#457B9D;fontColor=default;" parent="1" edge="1">
          <mxGeometry width="50" height="50" relative="1" as="geometry">
            <mxPoint x="1158" y="377" as="sourcePoint" />
            <mxPoint x="1308.04" y="377.264" as="targetPoint" />
          </mxGeometry>
        </mxCell>
        <mxCell id="I7RJczojcU9wBOJDffn9-28" value="&lt;font style=&quot;font-size: 20px;&quot;&gt;rx_data&lt;/font&gt;" style="text;html=1;align=center;verticalAlign=middle;resizable=0;points=[];autosize=1;strokeColor=none;fillColor=none;rounded=0;labelBackgroundColor=none;fontColor=#1D3557;" parent="1" vertex="1">
          <mxGeometry x="1308.04" y="317" width="85" height="36" as="geometry" />
        </mxCell>
        <mxCell id="I7RJczojcU9wBOJDffn9-29" value="&lt;font style=&quot;font-size: 20px;&quot;&gt;transfer_done&lt;/font&gt;" style="text;html=1;align=center;verticalAlign=middle;resizable=0;points=[];autosize=1;strokeColor=none;fillColor=none;rounded=0;labelBackgroundColor=none;fontColor=#1D3557;" parent="1" vertex="1">
          <mxGeometry x="1308.04" y="359" width="141" height="36" as="geometry" />
        </mxCell>
        <mxCell id="I7RJczojcU9wBOJDffn9-30" value="" style="endArrow=none;html=1;rounded=0;labelBackgroundColor=none;strokeColor=#457B9D;fontColor=default;" parent="1" edge="1">
          <mxGeometry width="50" height="50" relative="1" as="geometry">
            <mxPoint x="483.5" y="513" as="sourcePoint" />
            <mxPoint x="512.5" y="491" as="targetPoint" />
          </mxGeometry>
        </mxCell>
        <mxCell id="I7RJczojcU9wBOJDffn9-31" value="" style="endArrow=none;html=1;rounded=0;labelBackgroundColor=none;strokeColor=#457B9D;fontColor=default;" parent="1" edge="1">
          <mxGeometry width="50" height="50" relative="1" as="geometry">
            <mxPoint x="483.5" y="317" as="sourcePoint" />
            <mxPoint x="512.5" y="295" as="targetPoint" />
          </mxGeometry>
        </mxCell>
        <mxCell id="I7RJczojcU9wBOJDffn9-32" value="" style="endArrow=classic;html=1;rounded=0;entryX=-0.005;entryY=0.242;entryDx=0;entryDy=0;entryPerimeter=0;labelBackgroundColor=none;strokeColor=#457B9D;fontColor=default;" parent="1" edge="1">
          <mxGeometry width="50" height="50" relative="1" as="geometry">
            <mxPoint x="1156.5" y="722" as="sourcePoint" />
            <mxPoint x="1306.54" y="722.264" as="targetPoint" />
          </mxGeometry>
        </mxCell>
        <mxCell id="I7RJczojcU9wBOJDffn9-33" value="&lt;font style=&quot;font-size: 20px;&quot;&gt;spi_cs_n&lt;/font&gt;" style="text;html=1;align=center;verticalAlign=middle;resizable=0;points=[];autosize=1;strokeColor=none;fillColor=none;rounded=0;labelBackgroundColor=none;fontColor=#1D3557;" parent="1" vertex="1">
          <mxGeometry x="1308.04" y="703" width="97" height="36" as="geometry" />
        </mxCell>
        <mxCell id="I7RJczojcU9wBOJDffn9-34" value="" style="endArrow=none;html=1;rounded=0;labelBackgroundColor=none;strokeColor=#457B9D;fontColor=default;" parent="1" edge="1">
          <mxGeometry width="50" height="50" relative="1" as="geometry">
            <mxPoint x="485.5" y="746" as="sourcePoint" />
            <mxPoint x="514.5" y="724" as="targetPoint" />
          </mxGeometry>
        </mxCell>
        <mxCell id="I7RJczojcU9wBOJDffn9-35" value="" style="endArrow=none;html=1;rounded=0;labelBackgroundColor=none;strokeColor=#457B9D;fontColor=default;" parent="1" edge="1">
          <mxGeometry width="50" height="50" relative="1" as="geometry">
            <mxPoint x="1217.5" y="732" as="sourcePoint" />
            <mxPoint x="1246.5" y="710" as="targetPoint" />
          </mxGeometry>
        </mxCell>
        <mxCell id="I7RJczojcU9wBOJDffn9-36" value="" style="endArrow=none;html=1;rounded=0;labelBackgroundColor=none;strokeColor=#457B9D;fontColor=default;" parent="1" edge="1">
          <mxGeometry width="50" height="50" relative="1" as="geometry">
            <mxPoint x="1224.5" y="345" as="sourcePoint" />
            <mxPoint x="1253.5" y="323" as="targetPoint" />
          </mxGeometry>
        </mxCell>
        <mxCell id="I7RJczojcU9wBOJDffn9-38" value="&lt;pre&gt;&lt;span style=&quot;font-size: 30px;&quot;&gt;&lt;b&gt;SPI MASTER&lt;/b&gt;&lt;/span&gt;&lt;/pre&gt;" style="text;html=1;align=center;verticalAlign=middle;resizable=0;points=[];autosize=1;strokeColor=none;fillColor=none;rounded=0;labelBackgroundColor=none;fontColor=#1D3557;" parent="1" vertex="1">
          <mxGeometry x="761.5" y="494" width="198" height="72" as="geometry" />
        </mxCell>
      </root>
    </mxGraphModel>
  </diagram>
  <diagram id="_TV4Z81rzh5UE6AZ6Q8j" name="Page-2">
    <mxGraphModel dx="1985" dy="1398" grid="0" gridSize="10" guides="1" tooltips="1" connect="1" arrows="1" fold="1" page="1" pageScale="1" pageWidth="1700" pageHeight="1100" math="0" shadow="0">
      <root>
        <mxCell id="0" />
        <mxCell id="1" parent="0" />
        <mxCell id="VIzt_YO7N-oXyBKayP0V-29" value="" style="whiteSpace=wrap;html=1;aspect=fixed;fillColor=#f5f5f5;fontColor=#333333;strokeColor=#666666;dashed=1;" parent="1" vertex="1">
          <mxGeometry x="528" y="252" width="592" height="592" as="geometry" />
        </mxCell>
        <mxCell id="VIzt_YO7N-oXyBKayP0V-1" style="edgeStyle=orthogonalEdgeStyle;rounded=0;orthogonalLoop=1;jettySize=auto;html=1;exitX=0;exitY=0.5;exitDx=0;exitDy=0;entryX=0.5;entryY=0;entryDx=0;entryDy=0;strokeColor=#457B9D;fontColor=#1D3557;fillColor=#A8DADC;" parent="1" source="VIzt_YO7N-oXyBKayP0V-2" target="VIzt_YO7N-oXyBKayP0V-4" edge="1">
          <mxGeometry relative="1" as="geometry" />
        </mxCell>
        <mxCell id="VIzt_YO7N-oXyBKayP0V-2" value="" style="rounded=0;whiteSpace=wrap;html=1;strokeColor=#457B9D;fontColor=#1D3557;fillColor=#A8DADC;" parent="1" vertex="1">
          <mxGeometry x="738" y="441" width="181" height="179" as="geometry" />
        </mxCell>
        <mxCell id="VIzt_YO7N-oXyBKayP0V-3" value="" style="endArrow=classic;html=1;rounded=0;strokeColor=#457B9D;fontColor=#1D3557;fillColor=#A8DADC;" parent="1" edge="1">
          <mxGeometry width="50" height="50" relative="1" as="geometry">
            <mxPoint x="566" y="694.47" as="sourcePoint" />
            <mxPoint x="653" y="694.47" as="targetPoint" />
          </mxGeometry>
        </mxCell>
        <mxCell id="VIzt_YO7N-oXyBKayP0V-4" value="" style="ellipse;whiteSpace=wrap;html=1;aspect=fixed;strokeColor=#457B9D;fontColor=#1D3557;fillColor=#A8DADC;" parent="1" vertex="1">
          <mxGeometry x="652" y="672" width="46" height="46" as="geometry" />
        </mxCell>
        <mxCell id="VIzt_YO7N-oXyBKayP0V-5" value="" style="endArrow=classic;html=1;rounded=0;strokeColor=#457B9D;fontColor=#1D3557;fillColor=#A8DADC;entryX=0.5;entryY=1;entryDx=0;entryDy=0;exitX=1;exitY=0.5;exitDx=0;exitDy=0;" parent="1" source="VIzt_YO7N-oXyBKayP0V-4" target="VIzt_YO7N-oXyBKayP0V-2" edge="1">
          <mxGeometry width="50" height="50" relative="1" as="geometry">
            <mxPoint x="764" y="699.25" as="sourcePoint" />
            <mxPoint x="814" y="649.25" as="targetPoint" />
            <Array as="points">
              <mxPoint x="829" y="695" />
            </Array>
          </mxGeometry>
        </mxCell>
        <mxCell id="VIzt_YO7N-oXyBKayP0V-6" value="&lt;font style=&quot;font-size: 23px;&quot;&gt;+&lt;/font&gt;" style="text;html=1;align=center;verticalAlign=middle;whiteSpace=wrap;rounded=0;fontColor=#1D3557;" parent="1" vertex="1">
          <mxGeometry x="645" y="680" width="60" height="30" as="geometry" />
        </mxCell>
        <mxCell id="VIzt_YO7N-oXyBKayP0V-7" value="&lt;font style=&quot;font-size: 17px;&quot;&gt;1&lt;/font&gt;" style="text;html=1;align=center;verticalAlign=middle;whiteSpace=wrap;rounded=0;fontColor=#1D3557;" parent="1" vertex="1">
          <mxGeometry x="528" y="680" width="60" height="30" as="geometry" />
        </mxCell>
        <mxCell id="VIzt_YO7N-oXyBKayP0V-8" value="" style="endArrow=none;html=1;rounded=0;strokeColor=#457B9D;fontColor=#1D3557;fillColor=#A8DADC;" parent="1" edge="1">
          <mxGeometry width="50" height="50" relative="1" as="geometry">
            <mxPoint x="756" y="706.5" as="sourcePoint" />
            <mxPoint x="788" y="683.5" as="targetPoint" />
          </mxGeometry>
        </mxCell>
        <mxCell id="VIzt_YO7N-oXyBKayP0V-9" value="" style="endArrow=none;html=1;rounded=0;strokeColor=#457B9D;fontColor=#1D3557;fillColor=#A8DADC;" parent="1" edge="1">
          <mxGeometry width="50" height="50" relative="1" as="geometry">
            <mxPoint x="659" y="584" as="sourcePoint" />
            <mxPoint x="691" y="561" as="targetPoint" />
          </mxGeometry>
        </mxCell>
        <mxCell id="VIzt_YO7N-oXyBKayP0V-10" value="&lt;font style=&quot;font-size: 17px;&quot;&gt;3&lt;/font&gt;" style="text;html=1;align=center;verticalAlign=middle;whiteSpace=wrap;rounded=0;fontColor=#1D3557;" parent="1" vertex="1">
          <mxGeometry x="675" y="567" width="39" height="27" as="geometry" />
        </mxCell>
        <mxCell id="VIzt_YO7N-oXyBKayP0V-11" value="&lt;font style=&quot;font-size: 17px;&quot;&gt;3&lt;/font&gt;" style="text;html=1;align=center;verticalAlign=middle;whiteSpace=wrap;rounded=0;fontColor=#1D3557;" parent="1" vertex="1">
          <mxGeometry x="751" y="694" width="60" height="30" as="geometry" />
        </mxCell>
        <mxCell id="VIzt_YO7N-oXyBKayP0V-16" value="" style="endArrow=none;html=1;rounded=0;strokeColor=#457B9D;fontColor=#1D3557;fillColor=#A8DADC;startFill=0;" parent="1" edge="1">
          <mxGeometry width="50" height="50" relative="1" as="geometry">
            <mxPoint x="675" y="531" as="sourcePoint" />
            <mxPoint x="848" y="397" as="targetPoint" />
            <Array as="points">
              <mxPoint x="675" y="397" />
            </Array>
          </mxGeometry>
        </mxCell>
        <mxCell id="VIzt_YO7N-oXyBKayP0V-32" value="" style="endArrow=none;html=1;rounded=0;strokeColor=#457B9D;fontColor=#1D3557;fillColor=#A8DADC;" parent="1" edge="1">
          <mxGeometry width="50" height="50" relative="1" as="geometry">
            <mxPoint x="798" y="251" as="sourcePoint" />
            <mxPoint x="798" y="374" as="targetPoint" />
          </mxGeometry>
        </mxCell>
        <mxCell id="VIzt_YO7N-oXyBKayP0V-33" value="" style="endArrow=classic;html=1;rounded=0;strokeColor=#457B9D;fontColor=#1D3557;fillColor=#A8DADC;endFill=1;" parent="1" edge="1">
          <mxGeometry width="50" height="50" relative="1" as="geometry">
            <mxPoint x="798" y="411" as="sourcePoint" />
            <mxPoint x="798" y="441" as="targetPoint" />
          </mxGeometry>
        </mxCell>
        <mxCell id="VIzt_YO7N-oXyBKayP0V-34" value="" style="curved=1;endArrow=none;html=1;rounded=0;strokeColor=#457B9D;fontColor=#1D3557;fillColor=#A8DADC;startFill=0;" parent="1" edge="1">
          <mxGeometry width="50" height="50" relative="1" as="geometry">
            <mxPoint x="798" y="411" as="sourcePoint" />
            <mxPoint x="798" y="374" as="targetPoint" />
            <Array as="points">
              <mxPoint x="821" y="397" />
            </Array>
          </mxGeometry>
        </mxCell>
        <mxCell id="VIzt_YO7N-oXyBKayP0V-35" value="" style="endArrow=classic;html=1;rounded=0;strokeColor=#457B9D;fontColor=#1D3557;fillColor=#A8DADC;" parent="1" edge="1">
          <mxGeometry width="50" height="50" relative="1" as="geometry">
            <mxPoint x="505" y="144" as="sourcePoint" />
            <mxPoint x="798" y="251" as="targetPoint" />
            <Array as="points">
              <mxPoint x="798" y="144" />
            </Array>
          </mxGeometry>
        </mxCell>
        <mxCell id="VIzt_YO7N-oXyBKayP0V-36" value="" style="endArrow=classic;html=1;rounded=0;strokeColor=#457B9D;fontColor=#1D3557;fillColor=#A8DADC;entryX=1.001;entryY=0.083;entryDx=0;entryDy=0;entryPerimeter=0;" parent="1" target="VIzt_YO7N-oXyBKayP0V-29" edge="1">
          <mxGeometry width="50" height="50" relative="1" as="geometry">
            <mxPoint x="848" y="397" as="sourcePoint" />
            <mxPoint x="1264" y="267" as="targetPoint" />
            <Array as="points">
              <mxPoint x="848" y="301" />
            </Array>
          </mxGeometry>
        </mxCell>
        <mxCell id="VIzt_YO7N-oXyBKayP0V-37" value="" style="endArrow=classic;html=1;rounded=0;strokeColor=#457B9D;fontColor=#1D3557;fillColor=#A8DADC;exitX=0.999;exitY=0.084;exitDx=0;exitDy=0;exitPerimeter=0;" parent="1" source="VIzt_YO7N-oXyBKayP0V-29" edge="1">
          <mxGeometry width="50" height="50" relative="1" as="geometry">
            <mxPoint x="1171" y="313" as="sourcePoint" />
            <mxPoint x="1250" y="302" as="targetPoint" />
          </mxGeometry>
        </mxCell>
        <mxCell id="VIzt_YO7N-oXyBKayP0V-38" value="&lt;font style=&quot;font-size: 20px;&quot;&gt;clk&lt;/font&gt;" style="text;html=1;align=center;verticalAlign=middle;resizable=0;points=[];autosize=1;strokeColor=none;fillColor=none;fontColor=#1D3557;" parent="1" vertex="1">
          <mxGeometry x="462" y="125" width="42" height="36" as="geometry" />
        </mxCell>
        <mxCell id="VIzt_YO7N-oXyBKayP0V-40" value="&lt;font style=&quot;font-size: 17px;&quot;&gt;3&lt;/font&gt;" style="text;html=1;align=center;verticalAlign=middle;whiteSpace=wrap;rounded=0;fontColor=#1D3557;" parent="1" vertex="1">
          <mxGeometry x="1164" y="302" width="60" height="30" as="geometry" />
        </mxCell>
        <mxCell id="VIzt_YO7N-oXyBKayP0V-41" value="" style="endArrow=none;html=1;rounded=0;strokeColor=#457B9D;fontColor=#1D3557;fillColor=#A8DADC;" parent="1" edge="1">
          <mxGeometry width="50" height="50" relative="1" as="geometry">
            <mxPoint x="1172" y="311" as="sourcePoint" />
            <mxPoint x="1198" y="292" as="targetPoint" />
          </mxGeometry>
        </mxCell>
        <mxCell id="VIzt_YO7N-oXyBKayP0V-42" value="&lt;pre&gt;&lt;font style=&quot;font-size: 17px;&quot;&gt;&lt;b&gt;8 bit Register&lt;/b&gt;&lt;/font&gt;&lt;/pre&gt;" style="text;html=1;align=center;verticalAlign=middle;resizable=0;points=[];autosize=1;strokeColor=none;fillColor=none;fontColor=#1D3557;" parent="1" vertex="1">
          <mxGeometry x="745" y="506" width="161" height="56" as="geometry" />
        </mxCell>
        <mxCell id="VIzt_YO7N-oXyBKayP0V-44" value="&lt;h1&gt;&lt;font style=&quot;font-size: 45px;&quot;&gt;Counter&amp;nbsp;&lt;/font&gt;&lt;/h1&gt;" style="text;html=1;align=center;verticalAlign=middle;resizable=0;points=[];autosize=1;strokeColor=none;fillColor=none;fontColor=#1D3557;" parent="1" vertex="1">
          <mxGeometry x="1494" y="2" width="203" height="98" as="geometry" />
        </mxCell>
        <mxCell id="VIzt_YO7N-oXyBKayP0V-46" value="&lt;font style=&quot;font-size: 20px;&quot;&gt;count&lt;/font&gt;" style="text;html=1;align=center;verticalAlign=middle;resizable=0;points=[];autosize=1;strokeColor=none;fillColor=none;fontColor=#1D3557;" parent="1" vertex="1">
          <mxGeometry x="1249" y="284" width="67" height="36" as="geometry" />
        </mxCell>
        <mxCell id="VIzt_YO7N-oXyBKayP0V-47" value="" style="endArrow=none;html=1;rounded=0;strokeColor=#457B9D;fontColor=#1D3557;fillColor=#A8DADC;" parent="1" edge="1">
          <mxGeometry width="50" height="50" relative="1" as="geometry">
            <mxPoint x="751" y="293" as="sourcePoint" />
            <mxPoint x="751" y="374" as="targetPoint" />
          </mxGeometry>
        </mxCell>
        <mxCell id="VIzt_YO7N-oXyBKayP0V-48" value="" style="curved=1;endArrow=none;html=1;rounded=0;strokeColor=#457B9D;fontColor=#1D3557;fillColor=#A8DADC;startFill=0;" parent="1" edge="1">
          <mxGeometry width="50" height="50" relative="1" as="geometry">
            <mxPoint x="751" y="411" as="sourcePoint" />
            <mxPoint x="751" y="374" as="targetPoint" />
            <Array as="points">
              <mxPoint x="774" y="397" />
            </Array>
          </mxGeometry>
        </mxCell>
        <mxCell id="VIzt_YO7N-oXyBKayP0V-49" value="" style="endArrow=classic;html=1;rounded=0;strokeColor=#457B9D;fontColor=#1D3557;fillColor=#A8DADC;endFill=1;" parent="1" edge="1">
          <mxGeometry width="50" height="50" relative="1" as="geometry">
            <mxPoint x="751" y="411" as="sourcePoint" />
            <mxPoint x="751" y="441" as="targetPoint" />
          </mxGeometry>
        </mxCell>
        <mxCell id="VIzt_YO7N-oXyBKayP0V-50" value="" style="endArrow=none;html=1;rounded=0;strokeColor=#457B9D;fontColor=#1D3557;fillColor=#A8DADC;exitX=0;exitY=0.068;exitDx=0;exitDy=0;exitPerimeter=0;startFill=0;" parent="1" source="VIzt_YO7N-oXyBKayP0V-29" edge="1">
          <mxGeometry width="50" height="50" relative="1" as="geometry">
            <mxPoint x="528" y="290" as="sourcePoint" />
            <mxPoint x="751" y="293" as="targetPoint" />
          </mxGeometry>
        </mxCell>
        <mxCell id="VIzt_YO7N-oXyBKayP0V-51" value="" style="endArrow=classic;html=1;rounded=0;strokeColor=#457B9D;fontColor=#1D3557;fillColor=#A8DADC;entryX=-0.001;entryY=0.067;entryDx=0;entryDy=0;entryPerimeter=0;" parent="1" target="VIzt_YO7N-oXyBKayP0V-29" edge="1">
          <mxGeometry width="50" height="50" relative="1" as="geometry">
            <mxPoint x="341" y="478" as="sourcePoint" />
            <mxPoint x="395" y="399" as="targetPoint" />
            <Array as="points">
              <mxPoint x="341" y="292" />
            </Array>
          </mxGeometry>
        </mxCell>
        <mxCell id="VIzt_YO7N-oXyBKayP0V-52" value="&lt;font style=&quot;font-size: 20px;&quot;&gt;rst_n&lt;/font&gt;" style="text;html=1;align=center;verticalAlign=middle;resizable=0;points=[];autosize=1;strokeColor=none;fillColor=none;fontColor=#1D3557;" parent="1" vertex="1">
          <mxGeometry x="315" y="479" width="62" height="36" as="geometry" />
        </mxCell>
        <mxCell id="VIzt_YO7N-oXyBKayP0V-53" value="&lt;font style=&quot;font-size: 20px;&quot;&gt;clk&lt;/font&gt;" style="text;html=1;align=center;verticalAlign=middle;resizable=0;points=[];autosize=1;strokeColor=none;fillColor=none;fontColor=#1D3557;" parent="1" vertex="1">
          <mxGeometry x="799" y="411" width="42" height="36" as="geometry" />
        </mxCell>
        <mxCell id="VIzt_YO7N-oXyBKayP0V-54" value="&lt;font style=&quot;font-size: 20px;&quot;&gt;rst_n&lt;/font&gt;" style="text;html=1;align=center;verticalAlign=middle;resizable=0;points=[];autosize=1;strokeColor=none;fillColor=none;fontColor=#1D3557;" parent="1" vertex="1">
          <mxGeometry x="694" y="411" width="62" height="36" as="geometry" />
        </mxCell>
        <mxCell id="VIzt_YO7N-oXyBKayP0V-55" value="&lt;font style=&quot;font-size: 20px;&quot;&gt;count&lt;/font&gt;" style="text;html=1;align=center;verticalAlign=middle;resizable=0;points=[];autosize=1;strokeColor=none;fillColor=none;fontColor=#1D3557;" parent="1" vertex="1">
          <mxGeometry x="847" y="302" width="67" height="36" as="geometry" />
        </mxCell>
        <mxCell id="fTl4-4UgLJvEP3_L1HDz-2" value="" style="endArrow=classic;html=1;rounded=0;entryX=0.996;entryY=0.52;entryDx=0;entryDy=0;entryPerimeter=0;exitX=1;exitY=0.478;exitDx=0;exitDy=0;exitPerimeter=0;strokeColor=#457B9D;" edge="1" parent="1" source="VIzt_YO7N-oXyBKayP0V-29" target="VIzt_YO7N-oXyBKayP0V-2">
          <mxGeometry width="50" height="50" relative="1" as="geometry">
            <mxPoint x="1012" y="590" as="sourcePoint" />
            <mxPoint x="1062" y="540" as="targetPoint" />
          </mxGeometry>
        </mxCell>
        <mxCell id="fTl4-4UgLJvEP3_L1HDz-3" value="" style="endArrow=classic;html=1;rounded=0;strokeColor=#457B9D;" edge="1" parent="1">
          <mxGeometry width="50" height="50" relative="1" as="geometry">
            <mxPoint x="1250" y="535" as="sourcePoint" />
            <mxPoint x="1119" y="535" as="targetPoint" />
          </mxGeometry>
        </mxCell>
        <mxCell id="fTl4-4UgLJvEP3_L1HDz-4" value="&lt;font style=&quot;font-size: 20px;&quot;&gt;enable&lt;/font&gt;" style="text;html=1;align=center;verticalAlign=middle;resizable=0;points=[];autosize=1;strokeColor=none;fillColor=none;fontColor=#1D3557;" vertex="1" parent="1">
          <mxGeometry x="1249" y="516" width="78" height="36" as="geometry" />
        </mxCell>
      </root>
    </mxGraphModel>
  </diagram>
  <diagram id="xjidct_OQ6_QDJkrBdSw" name="Page-3">
    <mxGraphModel dx="2647" dy="1863" grid="0" gridSize="10" guides="1" tooltips="1" connect="1" arrows="1" fold="1" page="1" pageScale="1" pageWidth="1700" pageHeight="1100" math="0" shadow="0">
      <root>
        <mxCell id="0" />
        <mxCell id="1" parent="0" />
        <mxCell id="X8gtm2H738UmuU86n8l_-8" value="" style="whiteSpace=wrap;html=1;aspect=fixed;strokeColor=#666666;fontColor=#333333;fillColor=#f5f5f5;dashed=1;" vertex="1" parent="1">
          <mxGeometry x="367" y="172" width="776" height="776" as="geometry" />
        </mxCell>
        <mxCell id="9wA7A_xicADRi2mdH8Qk-1" value="" style="endArrow=classic;html=1;rounded=0;strokeColor=#457B9D;fontColor=#1D3557;fillColor=#A8DADC;" edge="1" parent="1">
          <mxGeometry width="50" height="50" relative="1" as="geometry">
            <mxPoint x="489" y="648" as="sourcePoint" />
            <mxPoint x="552" y="515" as="targetPoint" />
            <Array as="points">
              <mxPoint x="489" y="515" />
            </Array>
          </mxGeometry>
        </mxCell>
        <mxCell id="9wA7A_xicADRi2mdH8Qk-3" value="" style="endArrow=classic;html=1;rounded=0;strokeColor=#457B9D;fontColor=#1D3557;fillColor=#A8DADC;entryX=0.357;entryY=1.016;entryDx=0;entryDy=0;entryPerimeter=0;" edge="1" parent="1">
          <mxGeometry width="50" height="50" relative="1" as="geometry">
            <mxPoint x="368" y="753" as="sourcePoint" />
            <mxPoint x="633.5529999999999" y="559.0040000000001" as="targetPoint" />
            <Array as="points">
              <mxPoint x="633.5" y="752.78" />
            </Array>
          </mxGeometry>
        </mxCell>
        <mxCell id="9wA7A_xicADRi2mdH8Qk-4" value="" style="rounded=0;whiteSpace=wrap;html=1;strokeColor=#457B9D;fontColor=#1D3557;fillColor=#A8DADC;" vertex="1" parent="1">
          <mxGeometry x="605" y="420" width="129" height="139" as="geometry" />
        </mxCell>
        <mxCell id="9wA7A_xicADRi2mdH8Qk-5" value="" style="endArrow=classic;html=1;rounded=0;strokeColor=#457B9D;fontColor=#1D3557;fillColor=#A8DADC;" edge="1" parent="1">
          <mxGeometry width="50" height="50" relative="1" as="geometry">
            <mxPoint x="734" y="466" as="sourcePoint" />
            <mxPoint x="854" y="466" as="targetPoint" />
          </mxGeometry>
        </mxCell>
        <mxCell id="9wA7A_xicADRi2mdH8Qk-8" value="" style="endArrow=classic;html=1;rounded=0;strokeColor=#457B9D;fontColor=#1D3557;fillColor=#A8DADC;" edge="1" parent="1">
          <mxGeometry width="50" height="50" relative="1" as="geometry">
            <mxPoint x="395" y="466" as="sourcePoint" />
            <mxPoint x="471" y="465.5799999999999" as="targetPoint" />
          </mxGeometry>
        </mxCell>
        <mxCell id="9wA7A_xicADRi2mdH8Qk-10" value="" style="ellipse;whiteSpace=wrap;html=1;aspect=fixed;strokeColor=#457B9D;fontColor=#1D3557;fillColor=#A8DADC;" vertex="1" parent="1">
          <mxGeometry x="470" y="444" width="44" height="44" as="geometry" />
        </mxCell>
        <mxCell id="9wA7A_xicADRi2mdH8Qk-11" value="" style="endArrow=classic;html=1;rounded=0;strokeColor=#457B9D;fontColor=#1D3557;fillColor=#A8DADC;" edge="1" parent="1">
          <mxGeometry width="50" height="50" relative="1" as="geometry">
            <mxPoint x="577" y="467" as="sourcePoint" />
            <mxPoint x="604" y="467" as="targetPoint" />
          </mxGeometry>
        </mxCell>
        <mxCell id="9wA7A_xicADRi2mdH8Qk-12" value="" style="endArrow=classic;html=1;rounded=0;strokeColor=#457B9D;fontColor=#1D3557;fillColor=#A8DADC;" edge="1" parent="1">
          <mxGeometry width="50" height="50" relative="1" as="geometry">
            <mxPoint x="809" y="467" as="sourcePoint" />
            <mxPoint x="492" y="441" as="targetPoint" />
            <Array as="points">
              <mxPoint x="809" y="380" />
              <mxPoint x="492" y="379" />
            </Array>
          </mxGeometry>
        </mxCell>
        <mxCell id="9wA7A_xicADRi2mdH8Qk-13" value="&lt;font style=&quot;font-size: 25px;&quot;&gt;+&lt;/font&gt;" style="text;html=1;align=center;verticalAlign=middle;resizable=0;points=[];autosize=1;strokeColor=none;fillColor=none;fontColor=#1D3557;" vertex="1" parent="1">
          <mxGeometry x="475.5" y="445" width="33" height="42" as="geometry" />
        </mxCell>
        <mxCell id="9wA7A_xicADRi2mdH8Qk-14" value="&lt;font style=&quot;font-size: 20px;&quot; face=&quot;Lucida Console&quot;&gt;clk_div/2 - 1= N&lt;br&gt;&lt;br&gt;/*For reference*/&lt;/font&gt;" style="text;html=1;align=center;verticalAlign=middle;resizable=0;points=[];autosize=1;strokeColor=none;fillColor=none;fontColor=#1D3557;" vertex="1" parent="1">
          <mxGeometry x="1431" y="986" width="223" height="84" as="geometry" />
        </mxCell>
        <mxCell id="9wA7A_xicADRi2mdH8Qk-15" value="" style="shape=trapezoid;perimeter=trapezoidPerimeter;whiteSpace=wrap;html=1;fixedSize=1;strokeColor=#457B9D;fontColor=#1D3557;fillColor=#A8DADC;rotation=90;" vertex="1" parent="1">
          <mxGeometry x="896" y="655" width="120" height="24" as="geometry" />
        </mxCell>
        <mxCell id="9wA7A_xicADRi2mdH8Qk-17" value="" style="endArrow=classic;html=1;rounded=0;strokeColor=#457B9D;fontColor=#1D3557;fillColor=#A8DADC;entryX=1;entryY=0.5;entryDx=0;entryDy=0;" edge="1" parent="1" target="9wA7A_xicADRi2mdH8Qk-15">
          <mxGeometry width="50" height="50" relative="1" as="geometry">
            <mxPoint x="980" y="466" as="sourcePoint" />
            <mxPoint x="861" y="748" as="targetPoint" />
            <Array as="points">
              <mxPoint x="980" y="557" />
              <mxPoint x="792" y="557" />
              <mxPoint x="792" y="742" />
              <mxPoint x="956" y="742" />
            </Array>
          </mxGeometry>
        </mxCell>
        <mxCell id="9wA7A_xicADRi2mdH8Qk-20" value="" style="ellipse;whiteSpace=wrap;html=1;aspect=fixed;strokeColor=#457B9D;fontColor=#1D3557;fillColor=#A8DADC;" vertex="1" parent="1">
          <mxGeometry x="853" y="443" width="46" height="46" as="geometry" />
        </mxCell>
        <mxCell id="9wA7A_xicADRi2mdH8Qk-21" value="&lt;font style=&quot;font-size: 25px;&quot;&gt;=&lt;/font&gt;" style="text;html=1;align=center;verticalAlign=middle;resizable=0;points=[];autosize=1;strokeColor=none;fillColor=none;fontColor=#1D3557;" vertex="1" parent="1">
          <mxGeometry x="859.5" y="446" width="33" height="42" as="geometry" />
        </mxCell>
        <mxCell id="9wA7A_xicADRi2mdH8Qk-22" value="" style="endArrow=none;html=1;rounded=0;strokeColor=#457B9D;fontColor=#1D3557;fillColor=#A8DADC;" edge="1" parent="1">
          <mxGeometry width="50" height="50" relative="1" as="geometry">
            <mxPoint x="818" y="475.5" as="sourcePoint" />
            <mxPoint x="837" y="456.5" as="targetPoint" />
          </mxGeometry>
        </mxCell>
        <mxCell id="9wA7A_xicADRi2mdH8Qk-23" value="" style="endArrow=none;html=1;rounded=0;strokeColor=#457B9D;fontColor=#1D3557;fillColor=#A8DADC;" edge="1" parent="1">
          <mxGeometry width="50" height="50" relative="1" as="geometry">
            <mxPoint x="866.5" y="415" as="sourcePoint" />
            <mxPoint x="885.5" y="396" as="targetPoint" />
          </mxGeometry>
        </mxCell>
        <mxCell id="9wA7A_xicADRi2mdH8Qk-24" value="16" style="text;html=1;align=center;verticalAlign=middle;resizable=0;points=[];autosize=1;strokeColor=none;fillColor=none;fontColor=#1D3557;" vertex="1" parent="1">
          <mxGeometry x="807" y="440" width="31" height="26" as="geometry" />
        </mxCell>
        <mxCell id="9wA7A_xicADRi2mdH8Qk-25" value="" style="endArrow=classic;html=1;rounded=0;strokeColor=#457B9D;fontColor=#1D3557;fillColor=#A8DADC;" edge="1" parent="1">
          <mxGeometry width="50" height="50" relative="1" as="geometry">
            <mxPoint x="875.5" y="375" as="sourcePoint" />
            <mxPoint x="876.5" y="443" as="targetPoint" />
          </mxGeometry>
        </mxCell>
        <mxCell id="9wA7A_xicADRi2mdH8Qk-26" value="16" style="text;html=1;align=center;verticalAlign=middle;resizable=0;points=[];autosize=1;strokeColor=none;fillColor=none;fontColor=#1D3557;" vertex="1" parent="1">
          <mxGeometry x="868" y="401" width="31" height="26" as="geometry" />
        </mxCell>
        <mxCell id="9wA7A_xicADRi2mdH8Qk-27" value="" style="rounded=0;whiteSpace=wrap;html=1;strokeColor=#457B9D;fontColor=#1D3557;fillColor=#A8DADC;" vertex="1" parent="1">
          <mxGeometry x="837.5" y="336" width="77" height="38" as="geometry" />
        </mxCell>
        <mxCell id="9wA7A_xicADRi2mdH8Qk-28" value="N" style="text;html=1;align=center;verticalAlign=middle;resizable=0;points=[];autosize=1;strokeColor=none;fillColor=none;fontColor=#1D3557;" vertex="1" parent="1">
          <mxGeometry x="862.5" y="342" width="27" height="26" as="geometry" />
        </mxCell>
        <mxCell id="9wA7A_xicADRi2mdH8Qk-30" value="" style="endArrow=classic;html=1;rounded=0;strokeColor=#457B9D;fontColor=#1D3557;fillColor=#A8DADC;entryX=0.25;entryY=1;entryDx=0;entryDy=0;" edge="1" parent="1">
          <mxGeometry width="50" height="50" relative="1" as="geometry">
            <mxPoint x="968.5" y="666" as="sourcePoint" />
            <mxPoint x="1080.5" y="711.2" as="targetPoint" />
            <Array as="points">
              <mxPoint x="1035.5" y="666.2" />
              <mxPoint x="1035.5" y="711.2" />
            </Array>
          </mxGeometry>
        </mxCell>
        <mxCell id="9wA7A_xicADRi2mdH8Qk-31" value="" style="verticalLabelPosition=bottom;shadow=0;dashed=0;align=center;html=1;verticalAlign=top;shape=mxgraph.electrical.logic_gates.inverter_2;strokeColor=#457B9D;fontColor=#1D3557;fillColor=#A8DADC;rotation=0;" vertex="1" parent="1">
          <mxGeometry x="889" y="684" width="29" height="21" as="geometry" />
        </mxCell>
        <mxCell id="9wA7A_xicADRi2mdH8Qk-32" value="" style="endArrow=classic;html=1;rounded=0;strokeColor=#457B9D;fontColor=#1D3557;fillColor=#A8DADC;" edge="1" parent="1">
          <mxGeometry width="50" height="50" relative="1" as="geometry">
            <mxPoint x="918" y="694.45" as="sourcePoint" />
            <mxPoint x="943" y="694.55" as="targetPoint" />
          </mxGeometry>
        </mxCell>
        <mxCell id="9wA7A_xicADRi2mdH8Qk-33" value="" style="endArrow=classic;html=1;rounded=0;strokeColor=#457B9D;fontColor=#1D3557;fillColor=#A8DADC;entryX=0;entryY=0.5;entryDx=0;entryDy=0;entryPerimeter=0;" edge="1" parent="1" target="9wA7A_xicADRi2mdH8Qk-31">
          <mxGeometry width="50" height="50" relative="1" as="geometry">
            <mxPoint x="994" y="666.5" as="sourcePoint" />
            <mxPoint x="889" y="694" as="targetPoint" />
            <Array as="points">
              <mxPoint x="994" y="590" />
              <mxPoint x="866" y="589" />
              <mxPoint x="865" y="694" />
            </Array>
          </mxGeometry>
        </mxCell>
        <mxCell id="9wA7A_xicADRi2mdH8Qk-34" value="" style="endArrow=classic;html=1;rounded=0;strokeColor=#457B9D;fontColor=#1D3557;fillColor=#A8DADC;" edge="1" parent="1">
          <mxGeometry width="50" height="50" relative="1" as="geometry">
            <mxPoint x="866" y="641" as="sourcePoint" />
            <mxPoint x="944" y="641.14" as="targetPoint" />
          </mxGeometry>
        </mxCell>
        <mxCell id="9wA7A_xicADRi2mdH8Qk-35" value="" style="shape=trapezoid;perimeter=trapezoidPerimeter;whiteSpace=wrap;html=1;fixedSize=1;strokeColor=#457B9D;fontColor=#1D3557;fillColor=#A8DADC;rotation=90;" vertex="1" parent="1">
          <mxGeometry x="505.5" y="465" width="120" height="24" as="geometry" />
        </mxCell>
        <mxCell id="9wA7A_xicADRi2mdH8Qk-36" value="" style="endArrow=classic;html=1;rounded=0;strokeColor=#457B9D;fontColor=#1D3557;fillColor=#A8DADC;" edge="1" parent="1">
          <mxGeometry width="50" height="50" relative="1" as="geometry">
            <mxPoint x="515" y="465" as="sourcePoint" />
            <mxPoint x="554" y="450" as="targetPoint" />
            <Array as="points">
              <mxPoint x="534" y="465" />
              <mxPoint x="534" y="450" />
            </Array>
          </mxGeometry>
        </mxCell>
        <mxCell id="X8gtm2H738UmuU86n8l_-1" value="" style="curved=1;endArrow=none;html=1;rounded=0;strokeColor=#457B9D;fontColor=#1D3557;fillColor=#A8DADC;startFill=0;" edge="1" parent="1">
          <mxGeometry width="50" height="50" relative="1" as="geometry">
            <mxPoint x="567" y="397" as="sourcePoint" />
            <mxPoint x="567" y="360" as="targetPoint" />
            <Array as="points">
              <mxPoint x="590" y="383" />
            </Array>
          </mxGeometry>
        </mxCell>
        <mxCell id="X8gtm2H738UmuU86n8l_-2" value="" style="endArrow=classic;html=1;rounded=0;strokeColor=#457B9D;fontColor=#1D3557;fillColor=#A8DADC;" edge="1" parent="1">
          <mxGeometry width="50" height="50" relative="1" as="geometry">
            <mxPoint x="567" y="397" as="sourcePoint" />
            <mxPoint x="567" y="429.5" as="targetPoint" />
          </mxGeometry>
        </mxCell>
        <mxCell id="X8gtm2H738UmuU86n8l_-3" value="" style="endArrow=none;html=1;rounded=0;strokeColor=#457B9D;fontColor=#1D3557;fillColor=#A8DADC;" edge="1" parent="1">
          <mxGeometry width="50" height="50" relative="1" as="geometry">
            <mxPoint x="567" y="360" as="sourcePoint" />
            <mxPoint x="567" y="304" as="targetPoint" />
          </mxGeometry>
        </mxCell>
        <mxCell id="X8gtm2H738UmuU86n8l_-4" value="" style="endArrow=classic;html=1;rounded=0;strokeColor=#457B9D;fontColor=#1D3557;fillColor=#A8DADC;" edge="1" parent="1">
          <mxGeometry width="50" height="50" relative="1" as="geometry">
            <mxPoint x="900" y="466" as="sourcePoint" />
            <mxPoint x="566" y="304" as="targetPoint" />
            <Array as="points">
              <mxPoint x="980" y="466" />
              <mxPoint x="980" y="304" />
            </Array>
          </mxGeometry>
        </mxCell>
        <mxCell id="X8gtm2H738UmuU86n8l_-5" value="&lt;font style=&quot;font-size: 20px;&quot;&gt;0&lt;/font&gt;" style="text;html=1;align=center;verticalAlign=middle;resizable=0;points=[];autosize=1;strokeColor=none;fillColor=none;fontColor=#1D3557;" vertex="1" parent="1">
          <mxGeometry x="475.5" y="648" width="29" height="36" as="geometry" />
        </mxCell>
        <mxCell id="X8gtm2H738UmuU86n8l_-6" value="&lt;font style=&quot;font-size: 20px;&quot;&gt;1&lt;/font&gt;" style="text;html=1;align=center;verticalAlign=middle;resizable=0;points=[];autosize=1;strokeColor=none;fillColor=none;fontColor=#1D3557;" vertex="1" parent="1">
          <mxGeometry x="367" y="448" width="29" height="36" as="geometry" />
        </mxCell>
        <mxCell id="X8gtm2H738UmuU86n8l_-7" value="" style="endArrow=classic;html=1;rounded=0;strokeColor=#457B9D;fontColor=#1D3557;fillColor=#A8DADC;entryX=0.357;entryY=1.016;entryDx=0;entryDy=0;entryPerimeter=0;exitX=0.001;exitY=0.866;exitDx=0;exitDy=0;exitPerimeter=0;" edge="1" parent="1">
          <mxGeometry width="50" height="50" relative="1" as="geometry">
            <mxPoint x="366.99799999999993" y="793.7879999999999" as="sourcePoint" />
            <mxPoint x="688.8329999999999" y="559.0040000000001" as="targetPoint" />
            <Array as="points">
              <mxPoint x="689.28" y="794" />
            </Array>
          </mxGeometry>
        </mxCell>
        <mxCell id="9H7Bunbv6iLd_jZd3H_v-2" value="&lt;pre&gt;&lt;font style=&quot;font-size: 11px;&quot;&gt;&lt;b&gt;Clk_Dividing_Reg&lt;/b&gt;&lt;/font&gt;&lt;/pre&gt;" style="text;html=1;align=center;verticalAlign=middle;resizable=0;points=[];autosize=1;strokeColor=none;fillColor=none;fontColor=#1D3557;" vertex="1" parent="1">
          <mxGeometry x="610" y="465" width="124" height="50" as="geometry" />
        </mxCell>
        <mxCell id="9H7Bunbv6iLd_jZd3H_v-3" value="0&lt;span style=&quot;color: rgba(0, 0, 0, 0); font-family: monospace; font-size: 0px; text-align: start;&quot;&gt;%3CmxGraphModel%3E%3Croot%3E%3CmxCell%20id%3D%220%22%2F%3E%3CmxCell%20id%3D%221%22%20parent%3D%220%22%2F%3E%3CmxCell%20id%3D%222%22%20value%3D%22n%22%20style%3D%22text%3Bhtml%3D1%3Balign%3Dcenter%3BverticalAlign%3Dmiddle%3Bresizable%3D0%3Bpoints%3D%5B%5D%3Bautosize%3D1%3BstrokeColor%3Dnone%3BfillColor%3Dnone%3BfontColor%3D%231D3557%3B%22%20vertex%3D%221%22%20parent%3D%221%22%3E%3CmxGeometry%20x%3D%22959%22%20y%3D%22449%22%20width%3D%2225%22%20height%3D%2226%22%20as%3D%22geometry%22%2F%3E%3C%2FmxCell%3E%3C%2Froot%3E%3C%2FmxGraphModel%3E&lt;/span&gt;" style="text;html=1;align=center;verticalAlign=middle;resizable=0;points=[];autosize=1;strokeColor=none;fillColor=none;fontColor=#1D3557;" vertex="1" parent="1">
          <mxGeometry x="943.5" y="629" width="25" height="26" as="geometry" />
        </mxCell>
        <mxCell id="9H7Bunbv6iLd_jZd3H_v-4" value="1" style="text;html=1;align=center;verticalAlign=middle;resizable=0;points=[];autosize=1;strokeColor=none;fillColor=none;fontColor=#1D3557;" vertex="1" parent="1">
          <mxGeometry x="943.5" y="681.5" width="25" height="26" as="geometry" />
        </mxCell>
        <mxCell id="9H7Bunbv6iLd_jZd3H_v-5" value="0&lt;span style=&quot;color: rgba(0, 0, 0, 0); font-family: monospace; font-size: 0px; text-align: start;&quot;&gt;%3CmxGraphModel%3E%3Croot%3E%3CmxCell%20id%3D%220%22%2F%3E%3CmxCell%20id%3D%221%22%20parent%3D%220%22%2F%3E%3CmxCell%20id%3D%222%22%20value%3D%22n%22%20style%3D%22text%3Bhtml%3D1%3Balign%3Dcenter%3BverticalAlign%3Dmiddle%3Bresizable%3D0%3Bpoints%3D%5B%5D%3Bautosize%3D1%3BstrokeColor%3Dnone%3BfillColor%3Dnone%3BfontColor%3D%231D3557%3B%22%20vertex%3D%221%22%20parent%3D%221%22%3E%3CmxGeometry%20x%3D%22959%22%20y%3D%22449%22%20width%3D%2225%22%20height%3D%2226%22%20as%3D%22geometry%22%2F%3E%3C%2FmxCell%3E%3C%2Froot%3E%3C%2FmxGraphModel%3E&lt;/span&gt;" style="text;html=1;align=center;verticalAlign=middle;resizable=0;points=[];autosize=1;strokeColor=none;fillColor=none;fontColor=#1D3557;" vertex="1" parent="1">
          <mxGeometry x="553" y="439" width="25" height="26" as="geometry" />
        </mxCell>
        <mxCell id="9H7Bunbv6iLd_jZd3H_v-6" value="1" style="text;html=1;align=center;verticalAlign=middle;resizable=0;points=[];autosize=1;strokeColor=none;fillColor=none;fontColor=#1D3557;" vertex="1" parent="1">
          <mxGeometry x="550" y="499" width="25" height="26" as="geometry" />
        </mxCell>
        <mxCell id="9H7Bunbv6iLd_jZd3H_v-7" value="counter" style="text;html=1;align=center;verticalAlign=middle;resizable=0;points=[];autosize=1;strokeColor=none;fillColor=none;fontColor=#1D3557;" vertex="1" parent="1">
          <mxGeometry x="741" y="466" width="58" height="26" as="geometry" />
        </mxCell>
        <mxCell id="9H7Bunbv6iLd_jZd3H_v-8" value="Sclk" style="text;html=1;align=center;verticalAlign=middle;resizable=0;points=[];autosize=1;strokeColor=none;fillColor=none;fontColor=#1D3557;" vertex="1" parent="1">
          <mxGeometry x="1011" y="642" width="41" height="26" as="geometry" />
        </mxCell>
        <mxCell id="9H7Bunbv6iLd_jZd3H_v-9" value="clk" style="text;html=1;align=center;verticalAlign=middle;resizable=0;points=[];autosize=1;strokeColor=none;fillColor=none;fontColor=#1D3557;" vertex="1" parent="1">
          <mxGeometry x="400" y="728" width="33" height="26" as="geometry" />
        </mxCell>
        <mxCell id="9H7Bunbv6iLd_jZd3H_v-10" value="rst_n" style="text;html=1;align=center;verticalAlign=middle;resizable=0;points=[];autosize=1;strokeColor=none;fillColor=none;fontColor=#1D3557;" vertex="1" parent="1">
          <mxGeometry x="394" y="768" width="45" height="26" as="geometry" />
        </mxCell>
        <mxCell id="9H7Bunbv6iLd_jZd3H_v-11" value="" style="endArrow=classic;html=1;rounded=0;strokeColor=#457B9D;fontColor=#1D3557;fillColor=#A8DADC;" edge="1" parent="1">
          <mxGeometry width="50" height="50" relative="1" as="geometry">
            <mxPoint x="211" y="753" as="sourcePoint" />
            <mxPoint x="365" y="753" as="targetPoint" />
          </mxGeometry>
        </mxCell>
        <mxCell id="9H7Bunbv6iLd_jZd3H_v-12" value="" style="endArrow=classic;html=1;rounded=0;strokeColor=#457B9D;fontColor=#1D3557;fillColor=#A8DADC;entryX=0;entryY=0.81;entryDx=0;entryDy=0;entryPerimeter=0;" edge="1" parent="1">
          <mxGeometry width="50" height="50" relative="1" as="geometry">
            <mxPoint x="206" y="793" as="sourcePoint" />
            <mxPoint x="367" y="794" as="targetPoint" />
          </mxGeometry>
        </mxCell>
        <mxCell id="9H7Bunbv6iLd_jZd3H_v-13" value="clk" style="text;html=1;align=center;verticalAlign=middle;resizable=0;points=[];autosize=1;strokeColor=none;fillColor=none;fontColor=#1D3557;" vertex="1" parent="1">
          <mxGeometry x="174" y="738" width="33" height="26" as="geometry" />
        </mxCell>
        <mxCell id="9H7Bunbv6iLd_jZd3H_v-14" value="rst_n" style="text;html=1;align=center;verticalAlign=middle;resizable=0;points=[];autosize=1;strokeColor=none;fillColor=none;fontColor=#1D3557;" vertex="1" parent="1">
          <mxGeometry x="162" y="778" width="45" height="26" as="geometry" />
        </mxCell>
        <mxCell id="9H7Bunbv6iLd_jZd3H_v-15" value="" style="endArrow=classic;html=1;rounded=0;strokeColor=#457B9D;fontColor=#1D3557;fillColor=#A8DADC;" edge="1" parent="1">
          <mxGeometry width="50" height="50" relative="1" as="geometry">
            <mxPoint x="1143" y="738" as="sourcePoint" />
            <mxPoint x="1304" y="739" as="targetPoint" />
          </mxGeometry>
        </mxCell>
        <mxCell id="9H7Bunbv6iLd_jZd3H_v-16" value="Sclk" style="text;html=1;align=center;verticalAlign=middle;resizable=0;points=[];autosize=1;strokeColor=none;fillColor=none;fontColor=#1D3557;" vertex="1" parent="1">
          <mxGeometry x="1304" y="725" width="41" height="26" as="geometry" />
        </mxCell>
        <mxCell id="HqOI2Eqoivqfs8D6yTOV-1" value="&lt;h1&gt;&lt;font style=&quot;font-size: 45px;&quot;&gt;Clk_generator&lt;/font&gt;&lt;/h1&gt;" style="text;html=1;align=center;verticalAlign=middle;resizable=0;points=[];autosize=1;strokeColor=none;fillColor=none;fontColor=#1D3557;" vertex="1" parent="1">
          <mxGeometry x="1375" y="3" width="321" height="98" as="geometry" />
        </mxCell>
        <mxCell id="HqOI2Eqoivqfs8D6yTOV-2" value="" style="curved=1;endArrow=none;html=1;rounded=0;strokeColor=#457B9D;fontColor=#1D3557;fillColor=#A8DADC;startFill=0;" edge="1" parent="1">
          <mxGeometry width="50" height="50" relative="1" as="geometry">
            <mxPoint x="876" y="316" as="sourcePoint" />
            <mxPoint x="876" y="279" as="targetPoint" />
            <Array as="points">
              <mxPoint x="899" y="302" />
            </Array>
          </mxGeometry>
        </mxCell>
        <mxCell id="HqOI2Eqoivqfs8D6yTOV-3" value="" style="endArrow=classic;html=1;rounded=0;strokeColor=#457B9D;fontColor=#1D3557;fillColor=#A8DADC;" edge="1" parent="1">
          <mxGeometry width="50" height="50" relative="1" as="geometry">
            <mxPoint x="875.69" y="316" as="sourcePoint" />
            <mxPoint x="876" y="335" as="targetPoint" />
          </mxGeometry>
        </mxCell>
        <mxCell id="HqOI2Eqoivqfs8D6yTOV-4" value="" style="endArrow=none;html=1;rounded=0;strokeColor=#457B9D;fontColor=#1D3557;fillColor=#A8DADC;exitX=0.708;exitY=0.002;exitDx=0;exitDy=0;exitPerimeter=0;startFill=0;" edge="1" parent="1">
          <mxGeometry width="50" height="50" relative="1" as="geometry">
            <mxPoint x="875.6740000000001" y="171.99599999999998" as="sourcePoint" />
            <mxPoint x="876.33" y="278.56" as="targetPoint" />
          </mxGeometry>
        </mxCell>
        <mxCell id="HqOI2Eqoivqfs8D6yTOV-5" value="" style="endArrow=classic;html=1;rounded=0;strokeColor=#457B9D;fontColor=#1D3557;fillColor=#A8DADC;" edge="1" parent="1">
          <mxGeometry width="50" height="50" relative="1" as="geometry">
            <mxPoint x="259.93937544389206" y="91" as="sourcePoint" />
            <mxPoint x="876" y="172" as="targetPoint" />
            <Array as="points">
              <mxPoint x="876" y="89" />
            </Array>
          </mxGeometry>
        </mxCell>
        <mxCell id="HqOI2Eqoivqfs8D6yTOV-6" value="clk_div" style="text;html=1;align=center;verticalAlign=middle;resizable=0;points=[];autosize=1;strokeColor=none;fillColor=none;fontColor=#1D3557;" vertex="1" parent="1">
          <mxGeometry x="205" y="77" width="55" height="26" as="geometry" />
        </mxCell>
        <mxCell id="HqOI2Eqoivqfs8D6yTOV-7" value="clk_div" style="text;html=1;align=center;verticalAlign=middle;resizable=0;points=[];autosize=1;strokeColor=none;fillColor=none;fontColor=#1D3557;" vertex="1" parent="1">
          <mxGeometry x="874" y="191" width="55" height="26" as="geometry" />
        </mxCell>
        <mxCell id="nkA0AGcs__wYjbdZpMuH-1" value="" style="endArrow=none;html=1;rounded=0;strokeColor=#457B9D;fontColor=#1D3557;fillColor=#A8DADC;" edge="1" parent="1">
          <mxGeometry width="50" height="50" relative="1" as="geometry">
            <mxPoint x="866.5" y="243" as="sourcePoint" />
            <mxPoint x="885.5" y="224" as="targetPoint" />
          </mxGeometry>
        </mxCell>
        <mxCell id="nkA0AGcs__wYjbdZpMuH-2" value="16" style="text;html=1;align=center;verticalAlign=middle;resizable=0;points=[];autosize=1;strokeColor=none;fillColor=none;fontColor=#1D3557;" vertex="1" parent="1">
          <mxGeometry x="876" y="228" width="31" height="26" as="geometry" />
        </mxCell>
        <mxCell id="nkA0AGcs__wYjbdZpMuH-3" value="16" style="text;html=1;align=center;verticalAlign=middle;resizable=0;points=[];autosize=1;strokeColor=none;fillColor=none;fontColor=#1D3557;" vertex="1" parent="1">
          <mxGeometry x="322" y="90" width="31" height="26" as="geometry" />
        </mxCell>
        <mxCell id="nkA0AGcs__wYjbdZpMuH-4" value="" style="endArrow=none;html=1;rounded=0;strokeColor=#457B9D;fontColor=#1D3557;fillColor=#A8DADC;" edge="1" parent="1">
          <mxGeometry width="50" height="50" relative="1" as="geometry">
            <mxPoint x="322" y="99.5" as="sourcePoint" />
            <mxPoint x="341" y="80.5" as="targetPoint" />
          </mxGeometry>
        </mxCell>
        <mxCell id="DMH6kySj4UTdEBW_4-RZ-1" value="" style="shape=trapezoid;perimeter=trapezoidPerimeter;whiteSpace=wrap;html=1;fixedSize=1;strokeColor=#457B9D;fontColor=#1D3557;fillColor=#A8DADC;rotation=90;" vertex="1" parent="1">
          <mxGeometry x="1032" y="730" width="120" height="24" as="geometry" />
        </mxCell>
        <mxCell id="DMH6kySj4UTdEBW_4-RZ-2" value="" style="endArrow=classic;html=1;rounded=0;strokeColor=#457B9D;fontColor=#1D3557;fillColor=#A8DADC;entryX=0.75;entryY=1;entryDx=0;entryDy=0;" edge="1" parent="1">
          <mxGeometry width="50" height="50" relative="1" as="geometry">
            <mxPoint x="760" y="948" as="sourcePoint" />
            <mxPoint x="1082" y="772" as="targetPoint" />
            <Array as="points">
              <mxPoint x="759" y="772" />
            </Array>
          </mxGeometry>
        </mxCell>
        <mxCell id="DMH6kySj4UTdEBW_4-RZ-3" value="" style="endArrow=classic;html=1;rounded=0;strokeColor=#457B9D;fontColor=#1D3557;fillColor=#A8DADC;entryX=1;entryY=0.5;entryDx=0;entryDy=0;exitX=0.935;exitY=1.001;exitDx=0;exitDy=0;exitPerimeter=0;" edge="1" parent="1" source="X8gtm2H738UmuU86n8l_-8" target="DMH6kySj4UTdEBW_4-RZ-1">
          <mxGeometry width="50" height="50" relative="1" as="geometry">
            <mxPoint x="1045" y="854" as="sourcePoint" />
            <mxPoint x="1095" y="804" as="targetPoint" />
          </mxGeometry>
        </mxCell>
        <mxCell id="DMH6kySj4UTdEBW_4-RZ-4" value="clk_idle" style="text;html=1;align=center;verticalAlign=middle;resizable=0;points=[];autosize=1;strokeColor=none;fillColor=none;fontColor=#1D3557;" vertex="1" parent="1">
          <mxGeometry x="759" y="773" width="58" height="26" as="geometry" />
        </mxCell>
        <mxCell id="DMH6kySj4UTdEBW_4-RZ-5" value="start_transfer" style="text;html=1;align=center;verticalAlign=middle;resizable=0;points=[];autosize=1;strokeColor=none;fillColor=none;fontColor=#1D3557;" vertex="1" parent="1">
          <mxGeometry x="1003" y="853" width="89" height="26" as="geometry" />
        </mxCell>
        <mxCell id="DMH6kySj4UTdEBW_4-RZ-6" value="0&lt;span style=&quot;color: rgba(0, 0, 0, 0); font-family: monospace; font-size: 0px; text-align: start;&quot;&gt;%3CmxGraphModel%3E%3Croot%3E%3CmxCell%20id%3D%220%22%2F%3E%3CmxCell%20id%3D%221%22%20parent%3D%220%22%2F%3E%3CmxCell%20id%3D%222%22%20value%3D%22n%22%20style%3D%22text%3Bhtml%3D1%3Balign%3Dcenter%3BverticalAlign%3Dmiddle%3Bresizable%3D0%3Bpoints%3D%5B%5D%3Bautosize%3D1%3BstrokeColor%3Dnone%3BfillColor%3Dnone%3BfontColor%3D%231D3557%3B%22%20vertex%3D%221%22%20parent%3D%221%22%3E%3CmxGeometry%20x%3D%22959%22%20y%3D%22449%22%20width%3D%2225%22%20height%3D%2226%22%20as%3D%22geometry%22%2F%3E%3C%2FmxCell%3E%3C%2Froot%3E%3C%2FmxGraphModel%3E&lt;/span&gt;" style="text;html=1;align=center;verticalAlign=middle;resizable=0;points=[];autosize=1;strokeColor=none;fillColor=none;fontColor=#1D3557;" vertex="1" parent="1">
          <mxGeometry x="1079.5" y="760" width="25" height="26" as="geometry" />
        </mxCell>
        <mxCell id="DMH6kySj4UTdEBW_4-RZ-7" value="1" style="text;html=1;align=center;verticalAlign=middle;resizable=0;points=[];autosize=1;strokeColor=none;fillColor=none;fontColor=#1D3557;" vertex="1" parent="1">
          <mxGeometry x="1079.5" y="699" width="25" height="26" as="geometry" />
        </mxCell>
        <mxCell id="DMH6kySj4UTdEBW_4-RZ-8" value="" style="endArrow=classic;html=1;rounded=0;strokeColor=#457B9D;fontColor=#1D3557;fillColor=#A8DADC;exitX=0.467;exitY=0.003;exitDx=0;exitDy=0;exitPerimeter=0;" edge="1" parent="1">
          <mxGeometry width="50" height="50" relative="1" as="geometry">
            <mxPoint x="1103.928" y="738.1" as="sourcePoint" />
            <mxPoint x="1143" y="737.8899999999999" as="targetPoint" />
          </mxGeometry>
        </mxCell>
        <mxCell id="DMH6kySj4UTdEBW_4-RZ-10" value="" style="endArrow=classic;html=1;rounded=0;strokeColor=#457B9D;fontColor=#1D3557;fillColor=#A8DADC;entryX=0.5;entryY=1;entryDx=0;entryDy=0;" edge="1" parent="1">
          <mxGeometry width="50" height="50" relative="1" as="geometry">
            <mxPoint x="1092" y="1031" as="sourcePoint" />
            <mxPoint x="1092" y="948" as="targetPoint" />
          </mxGeometry>
        </mxCell>
        <mxCell id="DMH6kySj4UTdEBW_4-RZ-11" value="" style="endArrow=classic;html=1;rounded=0;strokeColor=#457B9D;fontColor=#1D3557;fillColor=#A8DADC;entryX=0.5;entryY=1;entryDx=0;entryDy=0;" edge="1" parent="1">
          <mxGeometry width="50" height="50" relative="1" as="geometry">
            <mxPoint x="759" y="1031" as="sourcePoint" />
            <mxPoint x="759" y="948" as="targetPoint" />
          </mxGeometry>
        </mxCell>
        <mxCell id="DMH6kySj4UTdEBW_4-RZ-12" value="clk_idle" style="text;html=1;align=center;verticalAlign=middle;resizable=0;points=[];autosize=1;strokeColor=none;fillColor=none;fontColor=#1D3557;" vertex="1" parent="1">
          <mxGeometry x="734" y="1030" width="58" height="26" as="geometry" />
        </mxCell>
        <mxCell id="DMH6kySj4UTdEBW_4-RZ-13" value="start_transfer" style="text;html=1;align=center;verticalAlign=middle;resizable=0;points=[];autosize=1;strokeColor=none;fillColor=none;fontColor=#1D3557;" vertex="1" parent="1">
          <mxGeometry x="1045" y="1030" width="89" height="26" as="geometry" />
        </mxCell>
      </root>
    </mxGraphModel>
  </diagram>
  <diagram id="XR-QJukU2lNOO60dWdAM" name="Page-4">
    <mxGraphModel dx="1222" dy="860" grid="0" gridSize="10" guides="1" tooltips="1" connect="1" arrows="1" fold="1" page="1" pageScale="1" pageWidth="1700" pageHeight="1100" math="0" shadow="0">
      <root>
        <mxCell id="0" />
        <mxCell id="1" parent="0" />
        <mxCell id="RySzX6Syusm5kp-YTWbq-9" value="" style="whiteSpace=wrap;html=1;aspect=fixed;strokeColor=#666666;fontColor=#333333;fillColor=#f5f5f5;dashed=1;" vertex="1" parent="1">
          <mxGeometry x="519" y="284" width="580" height="580" as="geometry" />
        </mxCell>
        <mxCell id="RySzX6Syusm5kp-YTWbq-10" value="" style="endArrow=classic;html=1;rounded=0;strokeColor=#457B9D;fontColor=#1D3557;fillColor=#A8DADC;entryX=0.999;entryY=0.128;entryDx=0;entryDy=0;entryPerimeter=0;exitX=0;exitY=0.445;exitDx=0;exitDy=0;exitPerimeter=0;" edge="1" parent="1" source="RySzX6Syusm5kp-YTWbq-9" target="RySzX6Syusm5kp-YTWbq-9">
          <mxGeometry width="50" height="50" relative="1" as="geometry">
            <mxPoint x="567" y="543" as="sourcePoint" />
            <mxPoint x="822" y="516.5" as="targetPoint" />
            <Array as="points">
              <mxPoint x="569" y="542" />
              <mxPoint x="567" y="358.5" />
            </Array>
          </mxGeometry>
        </mxCell>
        <mxCell id="RySzX6Syusm5kp-YTWbq-11" value="CPOL" style="text;html=1;align=center;verticalAlign=middle;resizable=0;points=[];autosize=1;strokeColor=none;fillColor=none;fontColor=#1D3557;" vertex="1" parent="1">
          <mxGeometry x="355" y="528.5" width="51" height="26" as="geometry" />
        </mxCell>
        <mxCell id="RySzX6Syusm5kp-YTWbq-12" value="" style="endArrow=classic;html=1;rounded=0;strokeColor=#457B9D;fontColor=#1D3557;fillColor=#A8DADC;entryX=0;entryY=0.25;entryDx=0;entryDy=0;entryPerimeter=0;" edge="1" parent="1">
          <mxGeometry width="50" height="50" relative="1" as="geometry">
            <mxPoint x="406" y="542.5" as="sourcePoint" />
            <mxPoint x="519" y="542.5" as="targetPoint" />
          </mxGeometry>
        </mxCell>
        <mxCell id="RySzX6Syusm5kp-YTWbq-13" value="" style="endArrow=classic;html=1;rounded=0;strokeColor=#457B9D;fontColor=#1D3557;fillColor=#A8DADC;entryX=0;entryY=0.25;entryDx=0;entryDy=0;entryPerimeter=0;" edge="1" parent="1">
          <mxGeometry width="50" height="50" relative="1" as="geometry">
            <mxPoint x="406" y="605.5" as="sourcePoint" />
            <mxPoint x="519" y="605.5" as="targetPoint" />
          </mxGeometry>
        </mxCell>
        <mxCell id="RySzX6Syusm5kp-YTWbq-14" value="CPHA" style="text;html=1;align=center;verticalAlign=middle;resizable=0;points=[];autosize=1;strokeColor=none;fillColor=none;fontColor=#1D3557;" vertex="1" parent="1">
          <mxGeometry x="355" y="594.5" width="51" height="26" as="geometry" />
        </mxCell>
        <mxCell id="RySzX6Syusm5kp-YTWbq-15" value="" style="endArrow=classic;html=1;rounded=0;strokeColor=#457B9D;fontColor=#1D3557;fillColor=#A8DADC;entryX=0;entryY=0.25;entryDx=0;entryDy=0;entryPerimeter=0;" edge="1" parent="1">
          <mxGeometry width="50" height="50" relative="1" as="geometry">
            <mxPoint x="1099" y="726.86" as="sourcePoint" />
            <mxPoint x="1212" y="726.86" as="targetPoint" />
          </mxGeometry>
        </mxCell>
        <mxCell id="RySzX6Syusm5kp-YTWbq-16" value="" style="endArrow=classic;html=1;rounded=0;strokeColor=#457B9D;fontColor=#1D3557;fillColor=#A8DADC;entryX=0;entryY=0.25;entryDx=0;entryDy=0;entryPerimeter=0;" edge="1" parent="1">
          <mxGeometry width="50" height="50" relative="1" as="geometry">
            <mxPoint x="1099" y="573.86" as="sourcePoint" />
            <mxPoint x="1212" y="573.86" as="targetPoint" />
          </mxGeometry>
        </mxCell>
        <mxCell id="RySzX6Syusm5kp-YTWbq-17" value="" style="endArrow=classic;html=1;rounded=0;strokeColor=#457B9D;fontColor=#1D3557;fillColor=#A8DADC;entryX=0;entryY=0.25;entryDx=0;entryDy=0;entryPerimeter=0;" edge="1" parent="1">
          <mxGeometry width="50" height="50" relative="1" as="geometry">
            <mxPoint x="1099" y="358.5" as="sourcePoint" />
            <mxPoint x="1212" y="358.5" as="targetPoint" />
          </mxGeometry>
        </mxCell>
        <mxCell id="RySzX6Syusm5kp-YTWbq-18" value="clk_idle" style="text;html=1;align=center;verticalAlign=middle;resizable=0;points=[];autosize=1;strokeColor=none;fillColor=none;fontColor=#1D3557;" vertex="1" parent="1">
          <mxGeometry x="1211" y="344.5" width="58" height="26" as="geometry" />
        </mxCell>
        <mxCell id="RySzX6Syusm5kp-YTWbq-19" value="shift_edge" style="text;html=1;align=center;verticalAlign=middle;resizable=0;points=[];autosize=1;strokeColor=none;fillColor=none;fontColor=#1D3557;" vertex="1" parent="1">
          <mxGeometry x="1211" y="561" width="73" height="26" as="geometry" />
        </mxCell>
        <mxCell id="RySzX6Syusm5kp-YTWbq-20" value="sample_edge" style="text;html=1;align=center;verticalAlign=middle;resizable=0;points=[];autosize=1;strokeColor=none;fillColor=none;fontColor=#1D3557;" vertex="1" parent="1">
          <mxGeometry x="1211" y="714" width="90" height="26" as="geometry" />
        </mxCell>
        <mxCell id="LdFxx47KGeSvgqbmJCME-1" value="&lt;h1&gt;&lt;font style=&quot;font-size: 45px;&quot;&gt;Mode_control&lt;/font&gt;&lt;/h1&gt;" style="text;html=1;align=center;verticalAlign=middle;resizable=0;points=[];autosize=1;strokeColor=none;fillColor=none;fontColor=#1D3557;" vertex="1" parent="1">
          <mxGeometry x="1379" y="10" width="313" height="98" as="geometry" />
        </mxCell>
        <mxCell id="LzPWsWF06oPvzLeRmJRN-1" value="" style="shape=trapezoid;perimeter=trapezoidPerimeter;whiteSpace=wrap;html=1;fixedSize=1;strokeColor=#457B9D;fontColor=#1D3557;fillColor=#A8DADC;rotation=90;" vertex="1" parent="1">
          <mxGeometry x="812" y="562" width="120" height="24" as="geometry" />
        </mxCell>
        <mxCell id="LzPWsWF06oPvzLeRmJRN-2" value="" style="shape=trapezoid;perimeter=trapezoidPerimeter;whiteSpace=wrap;html=1;fixedSize=1;strokeColor=#457B9D;fontColor=#1D3557;fillColor=#A8DADC;rotation=90;" vertex="1" parent="1">
          <mxGeometry x="812" y="722" width="120" height="24" as="geometry" />
        </mxCell>
        <mxCell id="LzPWsWF06oPvzLeRmJRN-4" value="" style="endArrow=classic;html=1;rounded=0;strokeColor=#457B9D;fontColor=#1D3557;fillColor=#A8DADC;entryX=0;entryY=0.25;entryDx=0;entryDy=0;entryPerimeter=0;" edge="1" parent="1">
          <mxGeometry width="50" height="50" relative="1" as="geometry">
            <mxPoint x="747" y="541" as="sourcePoint" />
            <mxPoint x="860" y="541" as="targetPoint" />
          </mxGeometry>
        </mxCell>
        <mxCell id="LzPWsWF06oPvzLeRmJRN-5" value="" style="endArrow=classic;html=1;rounded=0;strokeColor=#457B9D;fontColor=#1D3557;fillColor=#A8DADC;entryX=0;entryY=0.25;entryDx=0;entryDy=0;entryPerimeter=0;" edge="1" parent="1">
          <mxGeometry width="50" height="50" relative="1" as="geometry">
            <mxPoint x="747" y="590" as="sourcePoint" />
            <mxPoint x="860" y="590" as="targetPoint" />
          </mxGeometry>
        </mxCell>
        <mxCell id="LzPWsWF06oPvzLeRmJRN-6" value="" style="endArrow=classic;html=1;rounded=0;strokeColor=#457B9D;fontColor=#1D3557;fillColor=#A8DADC;entryX=0;entryY=0.25;entryDx=0;entryDy=0;entryPerimeter=0;" edge="1" parent="1">
          <mxGeometry width="50" height="50" relative="1" as="geometry">
            <mxPoint x="794" y="704" as="sourcePoint" />
            <mxPoint x="859" y="704" as="targetPoint" />
          </mxGeometry>
        </mxCell>
        <mxCell id="LzPWsWF06oPvzLeRmJRN-7" value="" style="endArrow=classic;html=1;rounded=0;strokeColor=#457B9D;fontColor=#1D3557;fillColor=#A8DADC;entryX=0;entryY=0.25;entryDx=0;entryDy=0;entryPerimeter=0;" edge="1" parent="1">
          <mxGeometry width="50" height="50" relative="1" as="geometry">
            <mxPoint x="795" y="753" as="sourcePoint" />
            <mxPoint x="859" y="753" as="targetPoint" />
          </mxGeometry>
        </mxCell>
        <mxCell id="LzPWsWF06oPvzLeRmJRN-8" value="" style="endArrow=classic;html=1;rounded=0;strokeColor=#457B9D;fontColor=#1D3557;fillColor=#A8DADC;entryX=1;entryY=0.5;entryDx=0;entryDy=0;exitX=-0.002;exitY=0.554;exitDx=0;exitDy=0;exitPerimeter=0;" edge="1" parent="1" source="RySzX6Syusm5kp-YTWbq-9" target="LzPWsWF06oPvzLeRmJRN-1">
          <mxGeometry width="50" height="50" relative="1" as="geometry">
            <mxPoint x="677" y="587" as="sourcePoint" />
            <mxPoint x="727" y="537" as="targetPoint" />
            <Array as="points">
              <mxPoint x="569" y="605" />
              <mxPoint x="569" y="647" />
              <mxPoint x="721" y="649" />
              <mxPoint x="872" y="651" />
            </Array>
          </mxGeometry>
        </mxCell>
        <mxCell id="LzPWsWF06oPvzLeRmJRN-9" value="" style="endArrow=classic;html=1;rounded=0;strokeColor=#457B9D;fontColor=#1D3557;fillColor=#A8DADC;entryX=0;entryY=0.5;entryDx=0;entryDy=0;" edge="1" parent="1" target="LzPWsWF06oPvzLeRmJRN-2">
          <mxGeometry width="50" height="50" relative="1" as="geometry">
            <mxPoint x="872" y="651" as="sourcePoint" />
            <mxPoint x="864" y="568" as="targetPoint" />
          </mxGeometry>
        </mxCell>
        <mxCell id="LzPWsWF06oPvzLeRmJRN-11" value="" style="endArrow=none;html=1;rounded=0;strokeColor=#457B9D;fontColor=#1D3557;fillColor=#A8DADC;" edge="1" parent="1">
          <mxGeometry width="50" height="50" relative="1" as="geometry">
            <mxPoint x="569" y="542" as="sourcePoint" />
            <mxPoint x="748" y="590" as="targetPoint" />
            <Array as="points">
              <mxPoint x="655" y="542" />
              <mxPoint x="655" y="589" />
            </Array>
          </mxGeometry>
        </mxCell>
        <mxCell id="LzPWsWF06oPvzLeRmJRN-13" value="" style="verticalLabelPosition=bottom;shadow=0;dashed=0;align=center;html=1;verticalAlign=top;shape=mxgraph.electrical.logic_gates.inverter_2;strokeColor=#457B9D;fontColor=#1D3557;fillColor=#A8DADC;" vertex="1" parent="1">
          <mxGeometry x="692" y="529.5" width="36" height="24" as="geometry" />
        </mxCell>
        <mxCell id="LzPWsWF06oPvzLeRmJRN-15" value="" style="endArrow=none;html=1;rounded=0;strokeColor=#457B9D;fontColor=#1D3557;fillColor=#A8DADC;exitX=0.969;exitY=0.494;exitDx=0;exitDy=0;exitPerimeter=0;" edge="1" parent="1" source="LzPWsWF06oPvzLeRmJRN-13">
          <mxGeometry width="50" height="50" relative="1" as="geometry">
            <mxPoint x="691" y="581" as="sourcePoint" />
            <mxPoint x="748" y="541" as="targetPoint" />
          </mxGeometry>
        </mxCell>
        <mxCell id="LzPWsWF06oPvzLeRmJRN-16" value="" style="endArrow=none;html=1;rounded=0;strokeColor=#457B9D;fontColor=#1D3557;fillColor=#A8DADC;entryX=0;entryY=0.5;entryDx=0;entryDy=0;entryPerimeter=0;" edge="1" parent="1" target="LzPWsWF06oPvzLeRmJRN-13">
          <mxGeometry width="50" height="50" relative="1" as="geometry">
            <mxPoint x="655" y="542" as="sourcePoint" />
            <mxPoint x="660" y="524" as="targetPoint" />
          </mxGeometry>
        </mxCell>
        <mxCell id="9N5_aiN-EiTEr62qdWiz-1" value="" style="curved=1;endArrow=none;html=1;rounded=0;strokeColor=#457B9D;fontColor=#1D3557;fillColor=#A8DADC;startFill=0;" edge="1" parent="1">
          <mxGeometry width="50" height="50" relative="1" as="geometry">
            <mxPoint x="730" y="607" as="sourcePoint" />
            <mxPoint x="730" y="570" as="targetPoint" />
            <Array as="points">
              <mxPoint x="753" y="593" />
            </Array>
          </mxGeometry>
        </mxCell>
        <mxCell id="9N5_aiN-EiTEr62qdWiz-2" value="" style="curved=1;endArrow=none;html=1;rounded=0;strokeColor=#457B9D;fontColor=#1D3557;fillColor=#A8DADC;startFill=0;" edge="1" parent="1">
          <mxGeometry width="50" height="50" relative="1" as="geometry">
            <mxPoint x="730" y="661" as="sourcePoint" />
            <mxPoint x="730" y="624" as="targetPoint" />
            <Array as="points">
              <mxPoint x="753" y="647" />
            </Array>
          </mxGeometry>
        </mxCell>
        <mxCell id="9N5_aiN-EiTEr62qdWiz-3" value="" style="curved=1;endArrow=none;html=1;rounded=0;strokeColor=#457B9D;fontColor=#1D3557;fillColor=#A8DADC;startFill=0;" edge="1" parent="1">
          <mxGeometry width="50" height="50" relative="1" as="geometry">
            <mxPoint x="789" y="670" as="sourcePoint" />
            <mxPoint x="789" y="633" as="targetPoint" />
            <Array as="points">
              <mxPoint x="812" y="656" />
            </Array>
          </mxGeometry>
        </mxCell>
        <mxCell id="9N5_aiN-EiTEr62qdWiz-4" value="" style="endArrow=none;html=1;rounded=0;strokeColor=#457B9D;fontColor=#1D3557;fillColor=#A8DADC;" edge="1" parent="1">
          <mxGeometry width="50" height="50" relative="1" as="geometry">
            <mxPoint x="730" y="570" as="sourcePoint" />
            <mxPoint x="730" y="541" as="targetPoint" />
          </mxGeometry>
        </mxCell>
        <mxCell id="9N5_aiN-EiTEr62qdWiz-5" value="" style="endArrow=none;html=1;rounded=0;strokeColor=#457B9D;fontColor=#1D3557;fillColor=#A8DADC;" edge="1" parent="1">
          <mxGeometry width="50" height="50" relative="1" as="geometry">
            <mxPoint x="730" y="624" as="sourcePoint" />
            <mxPoint x="730" y="607" as="targetPoint" />
          </mxGeometry>
        </mxCell>
        <mxCell id="9N5_aiN-EiTEr62qdWiz-6" value="" style="endArrow=none;html=1;rounded=0;strokeColor=#457B9D;fontColor=#1D3557;fillColor=#A8DADC;" edge="1" parent="1">
          <mxGeometry width="50" height="50" relative="1" as="geometry">
            <mxPoint x="789" y="633" as="sourcePoint" />
            <mxPoint x="789" y="589" as="targetPoint" />
          </mxGeometry>
        </mxCell>
        <mxCell id="9N5_aiN-EiTEr62qdWiz-7" value="" style="endArrow=none;html=1;rounded=0;strokeColor=#457B9D;fontColor=#1D3557;fillColor=#A8DADC;" edge="1" parent="1">
          <mxGeometry width="50" height="50" relative="1" as="geometry">
            <mxPoint x="794" y="704" as="sourcePoint" />
            <mxPoint x="789" y="670" as="targetPoint" />
            <Array as="points">
              <mxPoint x="789" y="704" />
            </Array>
          </mxGeometry>
        </mxCell>
        <mxCell id="9N5_aiN-EiTEr62qdWiz-8" value="" style="endArrow=none;html=1;rounded=0;strokeColor=#457B9D;fontColor=#1D3557;fillColor=#A8DADC;" edge="1" parent="1">
          <mxGeometry width="50" height="50" relative="1" as="geometry">
            <mxPoint x="795" y="753" as="sourcePoint" />
            <mxPoint x="730" y="661" as="targetPoint" />
            <Array as="points">
              <mxPoint x="729" y="753" />
            </Array>
          </mxGeometry>
        </mxCell>
        <mxCell id="9N5_aiN-EiTEr62qdWiz-9" value="" style="endArrow=classic;html=1;rounded=0;strokeColor=#457B9D;fontColor=#1D3557;fillColor=#A8DADC;exitX=0.5;exitY=0;exitDx=0;exitDy=0;" edge="1" parent="1" source="LzPWsWF06oPvzLeRmJRN-1">
          <mxGeometry width="50" height="50" relative="1" as="geometry">
            <mxPoint x="833" y="580" as="sourcePoint" />
            <mxPoint x="1099" y="573" as="targetPoint" />
          </mxGeometry>
        </mxCell>
        <mxCell id="9N5_aiN-EiTEr62qdWiz-10" value="" style="endArrow=classic;html=1;rounded=0;strokeColor=#457B9D;fontColor=#1D3557;fillColor=#A8DADC;exitX=0.5;exitY=0;exitDx=0;exitDy=0;" edge="1" parent="1">
          <mxGeometry width="50" height="50" relative="1" as="geometry">
            <mxPoint x="884" y="727.5" as="sourcePoint" />
            <mxPoint x="1099" y="726.5" as="targetPoint" />
          </mxGeometry>
        </mxCell>
        <mxCell id="JFr-U7Kicv-pgJw3NIru-1" value="0" style="text;html=1;align=center;verticalAlign=middle;resizable=0;points=[];autosize=1;strokeColor=none;fillColor=none;fontColor=#1D3557;" vertex="1" parent="1">
          <mxGeometry x="859.5" y="529.5" width="25" height="26" as="geometry" />
        </mxCell>
        <mxCell id="JFr-U7Kicv-pgJw3NIru-2" value="1" style="text;html=1;align=center;verticalAlign=middle;resizable=0;points=[];autosize=1;strokeColor=none;fillColor=none;fontColor=#1D3557;" vertex="1" parent="1">
          <mxGeometry x="859.5" y="579" width="25" height="26" as="geometry" />
        </mxCell>
        <mxCell id="JFr-U7Kicv-pgJw3NIru-3" value="1" style="text;html=1;align=center;verticalAlign=middle;resizable=0;points=[];autosize=1;strokeColor=none;fillColor=none;fontColor=#1D3557;" vertex="1" parent="1">
          <mxGeometry x="859.5" y="742" width="25" height="26" as="geometry" />
        </mxCell>
        <mxCell id="JFr-U7Kicv-pgJw3NIru-4" value="0" style="text;html=1;align=center;verticalAlign=middle;resizable=0;points=[];autosize=1;strokeColor=none;fillColor=none;fontColor=#1D3557;" vertex="1" parent="1">
          <mxGeometry x="859.5" y="694" width="25" height="26" as="geometry" />
        </mxCell>
      </root>
    </mxGraphModel>
  </diagram>
  <diagram id="uWedO08GALMKLpYj8VEq" name="Page-5">
    <mxGraphModel dx="1764" dy="1242" grid="0" gridSize="10" guides="1" tooltips="1" connect="1" arrows="1" fold="1" page="1" pageScale="1" pageWidth="1700" pageHeight="1100" math="0" shadow="0">
      <root>
        <mxCell id="0" />
        <mxCell id="1" parent="0" />
        <mxCell id="IPD5zqWdwb5EyP4bEudo-46" value="" style="rounded=0;whiteSpace=wrap;html=1;strokeColor=#666666;fontColor=#333333;fillColor=#f5f5f5;dashed=1;" vertex="1" parent="1">
          <mxGeometry x="568" y="284" width="514" height="488" as="geometry" />
        </mxCell>
        <mxCell id="IPD5zqWdwb5EyP4bEudo-3" value="" style="shape=trapezoid;perimeter=trapezoidPerimeter;whiteSpace=wrap;html=1;fixedSize=1;strokeColor=#457B9D;fontColor=#1D3557;fillColor=#A8DADC;rotation=90;" vertex="1" parent="1">
          <mxGeometry x="612" y="493" width="328" height="42" as="geometry" />
        </mxCell>
        <mxCell id="IPD5zqWdwb5EyP4bEudo-4" value="" style="endArrow=classic;html=1;rounded=0;strokeColor=#457B9D;fontColor=#1D3557;fillColor=#A8DADC;entryX=1;entryY=0.5;entryDx=0;entryDy=0;" edge="1" parent="1" target="IPD5zqWdwb5EyP4bEudo-3">
          <mxGeometry width="50" height="50" relative="1" as="geometry">
            <mxPoint x="776" y="773" as="sourcePoint" />
            <mxPoint x="777" y="726" as="targetPoint" />
          </mxGeometry>
        </mxCell>
        <mxCell id="IPD5zqWdwb5EyP4bEudo-5" value="" style="endArrow=classic;html=1;rounded=0;strokeColor=#457B9D;fontColor=#1D3557;fillColor=#A8DADC;exitX=0.173;exitY=0.011;exitDx=0;exitDy=0;exitPerimeter=0;" edge="1" parent="1">
          <mxGeometry width="50" height="50" relative="1" as="geometry">
            <mxPoint x="796.538" y="402.004" as="sourcePoint" />
            <mxPoint x="882" y="402.26" as="targetPoint" />
          </mxGeometry>
        </mxCell>
        <mxCell id="IPD5zqWdwb5EyP4bEudo-6" value="" style="endArrow=classic;html=1;rounded=0;strokeColor=#457B9D;fontColor=#1D3557;fillColor=#A8DADC;exitX=0.173;exitY=0.011;exitDx=0;exitDy=0;exitPerimeter=0;" edge="1" parent="1">
          <mxGeometry width="50" height="50" relative="1" as="geometry">
            <mxPoint x="796.998" y="429.004" as="sourcePoint" />
            <mxPoint x="882.46" y="429.26" as="targetPoint" />
          </mxGeometry>
        </mxCell>
        <mxCell id="IPD5zqWdwb5EyP4bEudo-7" value="" style="endArrow=classic;html=1;rounded=0;strokeColor=#457B9D;fontColor=#1D3557;fillColor=#A8DADC;exitX=0.173;exitY=0.011;exitDx=0;exitDy=0;exitPerimeter=0;" edge="1" parent="1">
          <mxGeometry width="50" height="50" relative="1" as="geometry">
            <mxPoint x="796.998" y="460.004" as="sourcePoint" />
            <mxPoint x="882.46" y="460.26" as="targetPoint" />
          </mxGeometry>
        </mxCell>
        <mxCell id="IPD5zqWdwb5EyP4bEudo-8" value="" style="endArrow=classic;html=1;rounded=0;strokeColor=#457B9D;fontColor=#1D3557;fillColor=#A8DADC;exitX=0.173;exitY=0.011;exitDx=0;exitDy=0;exitPerimeter=0;" edge="1" parent="1">
          <mxGeometry width="50" height="50" relative="1" as="geometry">
            <mxPoint x="795.998" y="493.004" as="sourcePoint" />
            <mxPoint x="881.46" y="493.26" as="targetPoint" />
          </mxGeometry>
        </mxCell>
        <mxCell id="IPD5zqWdwb5EyP4bEudo-9" value="" style="endArrow=none;dashed=1;html=1;rounded=0;strokeColor=#457B9D;fontColor=#1D3557;fillColor=#A8DADC;" edge="1" parent="1">
          <mxGeometry width="50" height="50" relative="1" as="geometry">
            <mxPoint x="830" y="585" as="sourcePoint" />
            <mxPoint x="830" y="508" as="targetPoint" />
          </mxGeometry>
        </mxCell>
        <mxCell id="IPD5zqWdwb5EyP4bEudo-10" value="" style="endArrow=classic;html=1;rounded=0;strokeColor=#457B9D;fontColor=#1D3557;fillColor=#A8DADC;exitX=0.173;exitY=0.011;exitDx=0;exitDy=0;exitPerimeter=0;" edge="1" parent="1">
          <mxGeometry width="50" height="50" relative="1" as="geometry">
            <mxPoint x="797.998" y="605.004" as="sourcePoint" />
            <mxPoint x="883.46" y="605.26" as="targetPoint" />
          </mxGeometry>
        </mxCell>
        <mxCell id="IPD5zqWdwb5EyP4bEudo-11" value="0" style="text;html=1;align=center;verticalAlign=middle;resizable=0;points=[];autosize=1;strokeColor=none;fillColor=none;fontColor=#1D3557;" vertex="1" parent="1">
          <mxGeometry x="768" y="388" width="25" height="26" as="geometry" />
        </mxCell>
        <mxCell id="IPD5zqWdwb5EyP4bEudo-12" value="1" style="text;html=1;align=center;verticalAlign=middle;resizable=0;points=[];autosize=1;strokeColor=none;fillColor=none;fontColor=#1D3557;" vertex="1" parent="1">
          <mxGeometry x="768" y="419" width="25" height="26" as="geometry" />
        </mxCell>
        <mxCell id="IPD5zqWdwb5EyP4bEudo-13" value="2" style="text;html=1;align=center;verticalAlign=middle;resizable=0;points=[];autosize=1;strokeColor=none;fillColor=none;fontColor=#1D3557;" vertex="1" parent="1">
          <mxGeometry x="768" y="449" width="25" height="26" as="geometry" />
        </mxCell>
        <mxCell id="IPD5zqWdwb5EyP4bEudo-14" value="3" style="text;html=1;align=center;verticalAlign=middle;resizable=0;points=[];autosize=1;strokeColor=none;fillColor=none;fontColor=#1D3557;" vertex="1" parent="1">
          <mxGeometry x="768" y="479" width="25" height="26" as="geometry" />
        </mxCell>
        <mxCell id="IPD5zqWdwb5EyP4bEudo-15" value="&lt;font style=&quot;font-size: 7px;&quot;&gt;NUM_SLAVE - 1&lt;/font&gt;" style="text;html=1;align=center;verticalAlign=middle;resizable=0;points=[];autosize=1;strokeColor=none;fillColor=none;fontColor=#1D3557;rotation=90;" vertex="1" parent="1">
          <mxGeometry x="745.5" y="595" width="70" height="26" as="geometry" />
        </mxCell>
        <mxCell id="IPD5zqWdwb5EyP4bEudo-16" value="slave_sel" style="text;html=1;align=center;verticalAlign=middle;resizable=0;points=[];autosize=1;strokeColor=none;fillColor=none;fontColor=#1D3557;" vertex="1" parent="1">
          <mxGeometry x="745.5" y="773" width="68" height="26" as="geometry" />
        </mxCell>
        <mxCell id="IPD5zqWdwb5EyP4bEudo-17" value="" style="endArrow=classic;html=1;rounded=0;strokeColor=#457B9D;fontColor=#1D3557;fillColor=#A8DADC;entryX=0.5;entryY=1;entryDx=0;entryDy=0;" edge="1" parent="1" target="IPD5zqWdwb5EyP4bEudo-3">
          <mxGeometry width="50" height="50" relative="1" as="geometry">
            <mxPoint x="587" y="514" as="sourcePoint" />
            <mxPoint x="616" y="470" as="targetPoint" />
          </mxGeometry>
        </mxCell>
        <mxCell id="IPD5zqWdwb5EyP4bEudo-18" value="0" style="text;html=1;align=center;verticalAlign=middle;resizable=0;points=[];autosize=1;strokeColor=none;fillColor=none;fontColor=#1D3557;" vertex="1" parent="1">
          <mxGeometry x="564" y="505" width="25" height="26" as="geometry" />
        </mxCell>
        <mxCell id="IPD5zqWdwb5EyP4bEudo-21" style="edgeStyle=orthogonalEdgeStyle;rounded=0;orthogonalLoop=1;jettySize=auto;html=1;strokeColor=#457B9D;fontColor=#1D3557;fillColor=#A8DADC;entryX=0.25;entryY=1;entryDx=0;entryDy=0;" edge="1" parent="1" target="IPD5zqWdwb5EyP4bEudo-20">
          <mxGeometry relative="1" as="geometry">
            <mxPoint x="880" y="402" as="sourcePoint" />
          </mxGeometry>
        </mxCell>
        <mxCell id="IPD5zqWdwb5EyP4bEudo-20" value="" style="shape=trapezoid;perimeter=trapezoidPerimeter;whiteSpace=wrap;html=1;fixedSize=1;strokeColor=#457B9D;fontColor=#1D3557;fillColor=#A8DADC;rotation=90;" vertex="1" parent="1">
          <mxGeometry x="989.5" y="318" width="56.25" height="16.25" as="geometry" />
        </mxCell>
        <mxCell id="IPD5zqWdwb5EyP4bEudo-22" value="" style="endArrow=classic;html=1;rounded=0;strokeColor=#457B9D;fontColor=#1D3557;fillColor=#A8DADC;" edge="1" parent="1">
          <mxGeometry width="50" height="50" relative="1" as="geometry">
            <mxPoint x="989" y="343" as="sourcePoint" />
            <mxPoint x="1010.46" y="343.26" as="targetPoint" />
          </mxGeometry>
        </mxCell>
        <mxCell id="IPD5zqWdwb5EyP4bEudo-23" value="1" style="text;html=1;align=center;verticalAlign=middle;resizable=0;points=[];autosize=1;strokeColor=none;fillColor=none;fontColor=#1D3557;" vertex="1" parent="1">
          <mxGeometry x="962" y="330" width="25" height="26" as="geometry" />
        </mxCell>
        <mxCell id="IPD5zqWdwb5EyP4bEudo-24" value="" style="endArrow=classic;html=1;rounded=0;strokeColor=#457B9D;fontColor=#1D3557;fillColor=#A8DADC;exitX=0.173;exitY=0.011;exitDx=0;exitDy=0;exitPerimeter=0;" edge="1" parent="1">
          <mxGeometry width="50" height="50" relative="1" as="geometry">
            <mxPoint x="1025.998" y="325.824" as="sourcePoint" />
            <mxPoint x="1079" y="326" as="targetPoint" />
          </mxGeometry>
        </mxCell>
        <mxCell id="IPD5zqWdwb5EyP4bEudo-26" value="&lt;font style=&quot;font-size: 8px;&quot;&gt;start_transfer&lt;/font&gt;" style="text;html=1;align=center;verticalAlign=middle;resizable=0;points=[];autosize=1;strokeColor=none;fillColor=none;fontColor=#1D3557;" vertex="1" parent="1">
          <mxGeometry x="987" y="356" width="65" height="26" as="geometry" />
        </mxCell>
        <mxCell id="IPD5zqWdwb5EyP4bEudo-27" value="" style="endArrow=classic;html=1;rounded=0;strokeColor=#457B9D;fontColor=#1D3557;fillColor=#A8DADC;entryX=1;entryY=0.5;entryDx=0;entryDy=0;" edge="1" parent="1" target="IPD5zqWdwb5EyP4bEudo-20">
          <mxGeometry width="50" height="50" relative="1" as="geometry">
            <mxPoint x="1018" y="361" as="sourcePoint" />
            <mxPoint x="1021" y="394" as="targetPoint" />
          </mxGeometry>
        </mxCell>
        <mxCell id="IPD5zqWdwb5EyP4bEudo-28" value="&lt;font style=&quot;font-size: 9px;&quot;&gt;0&lt;/font&gt;" style="text;html=1;align=center;verticalAlign=middle;resizable=0;points=[];autosize=1;strokeColor=none;fillColor=none;fontColor=#1D3557;" vertex="1" parent="1">
          <mxGeometry x="1004" y="324" width="23" height="26" as="geometry" />
        </mxCell>
        <mxCell id="IPD5zqWdwb5EyP4bEudo-29" value="&lt;font style=&quot;font-size: 9px;&quot;&gt;1&lt;/font&gt;" style="text;html=1;align=center;verticalAlign=middle;resizable=0;points=[];autosize=1;strokeColor=none;fillColor=none;fontColor=#1D3557;" vertex="1" parent="1">
          <mxGeometry x="1004" y="300" width="23" height="26" as="geometry" />
        </mxCell>
        <mxCell id="IPD5zqWdwb5EyP4bEudo-30" value="" style="shape=trapezoid;perimeter=trapezoidPerimeter;whiteSpace=wrap;html=1;fixedSize=1;strokeColor=#457B9D;fontColor=#1D3557;fillColor=#A8DADC;rotation=90;" vertex="1" parent="1">
          <mxGeometry x="993.5" y="409" width="56.25" height="16.25" as="geometry" />
        </mxCell>
        <mxCell id="IPD5zqWdwb5EyP4bEudo-31" value="" style="endArrow=classic;html=1;rounded=0;strokeColor=#457B9D;fontColor=#1D3557;fillColor=#A8DADC;" edge="1" parent="1">
          <mxGeometry width="50" height="50" relative="1" as="geometry">
            <mxPoint x="993" y="434" as="sourcePoint" />
            <mxPoint x="1014.46" y="434.26" as="targetPoint" />
          </mxGeometry>
        </mxCell>
        <mxCell id="IPD5zqWdwb5EyP4bEudo-32" value="1" style="text;html=1;align=center;verticalAlign=middle;resizable=0;points=[];autosize=1;strokeColor=none;fillColor=none;fontColor=#1D3557;" vertex="1" parent="1">
          <mxGeometry x="966" y="421" width="25" height="26" as="geometry" />
        </mxCell>
        <mxCell id="IPD5zqWdwb5EyP4bEudo-33" value="" style="endArrow=classic;html=1;rounded=0;strokeColor=#457B9D;fontColor=#1D3557;fillColor=#A8DADC;exitX=0.173;exitY=0.011;exitDx=0;exitDy=0;exitPerimeter=0;" edge="1" parent="1">
          <mxGeometry width="50" height="50" relative="1" as="geometry">
            <mxPoint x="1029.998" y="416.824" as="sourcePoint" />
            <mxPoint x="1083" y="417" as="targetPoint" />
          </mxGeometry>
        </mxCell>
        <mxCell id="IPD5zqWdwb5EyP4bEudo-34" value="&lt;font style=&quot;font-size: 8px;&quot;&gt;start_transfer&lt;/font&gt;" style="text;html=1;align=center;verticalAlign=middle;resizable=0;points=[];autosize=1;strokeColor=none;fillColor=none;fontColor=#1D3557;" vertex="1" parent="1">
          <mxGeometry x="991" y="447" width="65" height="26" as="geometry" />
        </mxCell>
        <mxCell id="IPD5zqWdwb5EyP4bEudo-35" value="" style="endArrow=classic;html=1;rounded=0;strokeColor=#457B9D;fontColor=#1D3557;fillColor=#A8DADC;entryX=1;entryY=0.5;entryDx=0;entryDy=0;" edge="1" parent="1" target="IPD5zqWdwb5EyP4bEudo-30">
          <mxGeometry width="50" height="50" relative="1" as="geometry">
            <mxPoint x="1022" y="452" as="sourcePoint" />
            <mxPoint x="1025" y="485" as="targetPoint" />
          </mxGeometry>
        </mxCell>
        <mxCell id="IPD5zqWdwb5EyP4bEudo-36" value="&lt;font style=&quot;font-size: 9px;&quot;&gt;0&lt;/font&gt;" style="text;html=1;align=center;verticalAlign=middle;resizable=0;points=[];autosize=1;strokeColor=none;fillColor=none;fontColor=#1D3557;" vertex="1" parent="1">
          <mxGeometry x="1008" y="415" width="23" height="26" as="geometry" />
        </mxCell>
        <mxCell id="IPD5zqWdwb5EyP4bEudo-37" value="&lt;font style=&quot;font-size: 9px;&quot;&gt;1&lt;/font&gt;" style="text;html=1;align=center;verticalAlign=middle;resizable=0;points=[];autosize=1;strokeColor=none;fillColor=none;fontColor=#1D3557;" vertex="1" parent="1">
          <mxGeometry x="1006.1300000000001" y="389" width="23" height="26" as="geometry" />
        </mxCell>
        <mxCell id="IPD5zqWdwb5EyP4bEudo-38" value="" style="endArrow=classic;html=1;rounded=0;strokeColor=#457B9D;fontColor=#1D3557;fillColor=#A8DADC;" edge="1" parent="1">
          <mxGeometry width="50" height="50" relative="1" as="geometry">
            <mxPoint x="879" y="429" as="sourcePoint" />
            <mxPoint x="1013" y="404" as="targetPoint" />
            <Array as="points">
              <mxPoint x="965" y="428" />
              <mxPoint x="965" y="404" />
            </Array>
          </mxGeometry>
        </mxCell>
        <mxCell id="IPD5zqWdwb5EyP4bEudo-39" value="" style="endArrow=none;dashed=1;html=1;rounded=0;strokeColor=#457B9D;fontColor=#1D3557;fillColor=#A8DADC;" edge="1" parent="1">
          <mxGeometry width="50" height="50" relative="1" as="geometry">
            <mxPoint x="936" y="498" as="sourcePoint" />
            <mxPoint x="996" y="498" as="targetPoint" />
          </mxGeometry>
        </mxCell>
        <mxCell id="IPD5zqWdwb5EyP4bEudo-40" value="" style="endArrow=none;dashed=1;html=1;rounded=0;strokeColor=#457B9D;fontColor=#1D3557;fillColor=#A8DADC;" edge="1" parent="1">
          <mxGeometry width="50" height="50" relative="1" as="geometry">
            <mxPoint x="1052" y="587" as="sourcePoint" />
            <mxPoint x="1052" y="510" as="targetPoint" />
          </mxGeometry>
        </mxCell>
        <mxCell id="IPD5zqWdwb5EyP4bEudo-41" value="" style="endArrow=none;dashed=1;html=1;rounded=0;strokeColor=#457B9D;fontColor=#1D3557;fillColor=#A8DADC;" edge="1" parent="1">
          <mxGeometry width="50" height="50" relative="1" as="geometry">
            <mxPoint x="940" y="607.41" as="sourcePoint" />
            <mxPoint x="1000" y="607.41" as="targetPoint" />
          </mxGeometry>
        </mxCell>
        <mxCell id="IPD5zqWdwb5EyP4bEudo-42" value="" style="endArrow=classic;html=1;rounded=0;strokeColor=#457B9D;fontColor=#1D3557;fillColor=#A8DADC;exitX=0.173;exitY=0.011;exitDx=0;exitDy=0;exitPerimeter=0;" edge="1" parent="1">
          <mxGeometry width="50" height="50" relative="1" as="geometry">
            <mxPoint x="1026.998" y="607.444" as="sourcePoint" />
            <mxPoint x="1080" y="607.62" as="targetPoint" />
          </mxGeometry>
        </mxCell>
        <mxCell id="IPD5zqWdwb5EyP4bEudo-43" value="spi_cs_n[0]" style="text;html=1;align=center;verticalAlign=middle;resizable=0;points=[];autosize=1;strokeColor=none;fillColor=none;fontColor=#1D3557;" vertex="1" parent="1">
          <mxGeometry x="1080" y="313.12" width="79" height="26" as="geometry" />
        </mxCell>
        <mxCell id="IPD5zqWdwb5EyP4bEudo-44" value="spi_cs_n[1]" style="text;html=1;align=center;verticalAlign=middle;resizable=0;points=[];autosize=1;strokeColor=none;fillColor=none;fontColor=#1D3557;" vertex="1" parent="1">
          <mxGeometry x="1083" y="404.12" width="79" height="26" as="geometry" />
        </mxCell>
        <mxCell id="IPD5zqWdwb5EyP4bEudo-45" value="spi_cs_n[1]" style="text;html=1;align=center;verticalAlign=middle;resizable=0;points=[];autosize=1;strokeColor=none;fillColor=none;fontColor=#1D3557;" vertex="1" parent="1">
          <mxGeometry x="1080" y="592" width="79" height="26" as="geometry" />
        </mxCell>
        <mxCell id="EWh_IPuIVvbJL3sBzsVi-1" value="&lt;h1&gt;&lt;font style=&quot;font-size: 45px;&quot;&gt;Slave_selector&lt;/font&gt;&lt;/h1&gt;" style="text;html=1;align=center;verticalAlign=middle;resizable=0;points=[];autosize=1;strokeColor=none;fillColor=none;fontColor=#1D3557;" vertex="1" parent="1">
          <mxGeometry x="1348" y="13" width="333" height="98" as="geometry" />
        </mxCell>
        <mxCell id="o1tGh01XxUN0uAblQWxn-1" value="" style="endArrow=none;html=1;rounded=0;strokeColor=#457B9D;fontColor=#1D3557;fillColor=#A8DADC;" edge="1" parent="1">
          <mxGeometry width="50" height="50" relative="1" as="geometry">
            <mxPoint x="765.5" y="711" as="sourcePoint" />
            <mxPoint x="786.5" y="691" as="targetPoint" />
          </mxGeometry>
        </mxCell>
        <mxCell id="o1tGh01XxUN0uAblQWxn-2" value="clog2(NUM_SLAVE)" style="text;html=1;align=center;verticalAlign=middle;resizable=0;points=[];autosize=1;strokeColor=none;fillColor=none;fontColor=#1D3557;" vertex="1" parent="1">
          <mxGeometry x="774" y="699" width="126" height="26" as="geometry" />
        </mxCell>
      </root>
    </mxGraphModel>
  </diagram>
  <diagram id="4enkTJW1h1svD_5LgtW6" name="Page-6">
    <mxGraphModel dx="2269" dy="1597" grid="0" gridSize="10" guides="1" tooltips="1" connect="1" arrows="1" fold="1" page="1" pageScale="1" pageWidth="1700" pageHeight="1100" math="0" shadow="0">
      <root>
        <mxCell id="0" />
        <mxCell id="1" parent="0" />
        <mxCell id="kehqsG7V_Jig3M6Y1tac-4" value="" style="rounded=0;whiteSpace=wrap;html=1;strokeColor=#666666;fontColor=#333333;fillColor=#f5f5f5;dashed=1;" vertex="1" parent="1">
          <mxGeometry x="563" y="202" width="597" height="743" as="geometry" />
        </mxCell>
        <mxCell id="uQzWqDFhSTrxmqJ_uvOR-1" value="" style="rounded=0;whiteSpace=wrap;html=1;strokeColor=#457B9D;fontColor=#1D3557;fillColor=#A8DADC;" vertex="1" parent="1">
          <mxGeometry x="745" y="269" width="182" height="243" as="geometry" />
        </mxCell>
        <mxCell id="uQzWqDFhSTrxmqJ_uvOR-2" value="" style="endArrow=classic;html=1;rounded=0;strokeColor=#457B9D;fontColor=#1D3557;fillColor=#A8DADC;" edge="1" parent="1">
          <mxGeometry width="50" height="50" relative="1" as="geometry">
            <mxPoint x="568" y="313" as="sourcePoint" />
            <mxPoint x="743" y="313" as="targetPoint" />
          </mxGeometry>
        </mxCell>
        <mxCell id="uQzWqDFhSTrxmqJ_uvOR-4" value="" style="endArrow=classic;html=1;rounded=0;strokeColor=#457B9D;fontColor=#1D3557;fillColor=#A8DADC;" edge="1" parent="1">
          <mxGeometry width="50" height="50" relative="1" as="geometry">
            <mxPoint x="927" y="342" as="sourcePoint" />
            <mxPoint x="1160" y="342" as="targetPoint" />
          </mxGeometry>
        </mxCell>
        <mxCell id="uQzWqDFhSTrxmqJ_uvOR-5" value="" style="endArrow=classic;html=1;rounded=0;strokeColor=#457B9D;fontColor=#1D3557;fillColor=#A8DADC;entryX=0.153;entryY=1.003;entryDx=0;entryDy=0;entryPerimeter=0;" edge="1" parent="1" target="uQzWqDFhSTrxmqJ_uvOR-1">
          <mxGeometry width="50" height="50" relative="1" as="geometry">
            <mxPoint x="773" y="579" as="sourcePoint" />
            <mxPoint x="821" y="529" as="targetPoint" />
          </mxGeometry>
        </mxCell>
        <mxCell id="uQzWqDFhSTrxmqJ_uvOR-6" value="" style="endArrow=classic;html=1;rounded=0;strokeColor=#457B9D;fontColor=#1D3557;fillColor=#A8DADC;entryX=0.002;entryY=0.814;entryDx=0;entryDy=0;entryPerimeter=0;" edge="1" parent="1" target="uQzWqDFhSTrxmqJ_uvOR-1">
          <mxGeometry width="50" height="50" relative="1" as="geometry">
            <mxPoint x="566" y="467" as="sourcePoint" />
            <mxPoint x="697" y="423" as="targetPoint" />
          </mxGeometry>
        </mxCell>
        <mxCell id="uQzWqDFhSTrxmqJ_uvOR-7" value="" style="endArrow=classic;html=1;rounded=0;strokeColor=#457B9D;fontColor=#1D3557;fillColor=#A8DADC;entryX=0.153;entryY=1.003;entryDx=0;entryDy=0;entryPerimeter=0;" edge="1" parent="1">
          <mxGeometry width="50" height="50" relative="1" as="geometry">
            <mxPoint x="811" y="203" as="sourcePoint" />
            <mxPoint x="811" y="269" as="targetPoint" />
          </mxGeometry>
        </mxCell>
        <mxCell id="uQzWqDFhSTrxmqJ_uvOR-8" value="start_transfer" style="text;html=1;align=center;verticalAlign=middle;resizable=0;points=[];autosize=1;strokeColor=none;fillColor=none;fontColor=#1D3557;" vertex="1" parent="1">
          <mxGeometry x="471" y="560.5" width="89" height="26" as="geometry" />
        </mxCell>
        <mxCell id="uQzWqDFhSTrxmqJ_uvOR-9" value="tx_data" style="text;html=1;align=center;verticalAlign=middle;resizable=0;points=[];autosize=1;strokeColor=none;fillColor=none;fontColor=#1D3557;" vertex="1" parent="1">
          <mxGeometry x="506" y="299" width="57" height="26" as="geometry" />
        </mxCell>
        <mxCell id="uQzWqDFhSTrxmqJ_uvOR-10" value="spi_mosi" style="text;html=1;align=center;verticalAlign=middle;resizable=0;points=[];autosize=1;strokeColor=none;fillColor=none;fontColor=#1D3557;" vertex="1" parent="1">
          <mxGeometry x="1163" y="330" width="65" height="26" as="geometry" />
        </mxCell>
        <mxCell id="uQzWqDFhSTrxmqJ_uvOR-11" value="rst_n" style="text;html=1;align=center;verticalAlign=middle;resizable=0;points=[];autosize=1;strokeColor=none;fillColor=none;fontColor=#1D3557;" vertex="1" parent="1">
          <mxGeometry x="515" y="454" width="45" height="26" as="geometry" />
        </mxCell>
        <mxCell id="uQzWqDFhSTrxmqJ_uvOR-12" value="clk" style="text;html=1;align=center;verticalAlign=middle;resizable=0;points=[];autosize=1;strokeColor=none;fillColor=none;fontColor=#1D3557;" vertex="1" parent="1">
          <mxGeometry x="794" y="178" width="33" height="26" as="geometry" />
        </mxCell>
        <mxCell id="uQzWqDFhSTrxmqJ_uvOR-24" value="" style="rounded=0;whiteSpace=wrap;html=1;strokeColor=#457B9D;fontColor=#1D3557;fillColor=#A8DADC;" vertex="1" parent="1">
          <mxGeometry x="749" y="635" width="182" height="243" as="geometry" />
        </mxCell>
        <mxCell id="uQzWqDFhSTrxmqJ_uvOR-25" value="" style="endArrow=classic;html=1;rounded=0;strokeColor=#457B9D;fontColor=#1D3557;fillColor=#A8DADC;" edge="1" parent="1">
          <mxGeometry width="50" height="50" relative="1" as="geometry">
            <mxPoint x="562" y="579" as="sourcePoint" />
            <mxPoint x="773" y="634" as="targetPoint" />
            <Array as="points">
              <mxPoint x="773" y="578" />
            </Array>
          </mxGeometry>
        </mxCell>
        <mxCell id="uQzWqDFhSTrxmqJ_uvOR-26" value="" style="endArrow=classic;html=1;rounded=0;strokeColor=#457B9D;fontColor=#1D3557;fillColor=#A8DADC;" edge="1" parent="1">
          <mxGeometry width="50" height="50" relative="1" as="geometry">
            <mxPoint x="566" y="707" as="sourcePoint" />
            <mxPoint x="749" y="707" as="targetPoint" />
          </mxGeometry>
        </mxCell>
        <mxCell id="uQzWqDFhSTrxmqJ_uvOR-27" value="spi_miso" style="text;html=1;align=center;verticalAlign=middle;resizable=0;points=[];autosize=1;strokeColor=none;fillColor=none;fontColor=#1D3557;" vertex="1" parent="1">
          <mxGeometry x="495" y="694" width="65" height="26" as="geometry" />
        </mxCell>
        <mxCell id="uQzWqDFhSTrxmqJ_uvOR-28" value="" style="endArrow=classic;html=1;rounded=0;strokeColor=#457B9D;fontColor=#1D3557;fillColor=#A8DADC;" edge="1" parent="1">
          <mxGeometry width="50" height="50" relative="1" as="geometry">
            <mxPoint x="931" y="739" as="sourcePoint" />
            <mxPoint x="1052" y="739" as="targetPoint" />
          </mxGeometry>
        </mxCell>
        <mxCell id="uQzWqDFhSTrxmqJ_uvOR-29" value="rx_data" style="text;html=1;align=center;verticalAlign=middle;resizable=0;points=[];autosize=1;strokeColor=none;fillColor=none;fontColor=#1D3557;" vertex="1" parent="1">
          <mxGeometry x="1163" y="751" width="58" height="26" as="geometry" />
        </mxCell>
        <mxCell id="uQzWqDFhSTrxmqJ_uvOR-30" value="" style="shape=trapezoid;perimeter=trapezoidPerimeter;whiteSpace=wrap;html=1;fixedSize=1;strokeColor=#457B9D;fontColor=#1D3557;fillColor=#A8DADC;rotation=90;" vertex="1" parent="1">
          <mxGeometry x="1004" y="755" width="120" height="24" as="geometry" />
        </mxCell>
        <mxCell id="uQzWqDFhSTrxmqJ_uvOR-31" value="" style="endArrow=classic;html=1;rounded=0;strokeColor=#457B9D;fontColor=#1D3557;fillColor=#A8DADC;" edge="1" parent="1">
          <mxGeometry width="50" height="50" relative="1" as="geometry">
            <mxPoint x="997" y="851" as="sourcePoint" />
            <mxPoint x="1052" y="801" as="targetPoint" />
            <Array as="points">
              <mxPoint x="997" y="801" />
            </Array>
          </mxGeometry>
        </mxCell>
        <mxCell id="uQzWqDFhSTrxmqJ_uvOR-33" value="" style="endArrow=classic;html=1;rounded=0;strokeColor=#457B9D;fontColor=#1D3557;fillColor=#A8DADC;" edge="1" parent="1">
          <mxGeometry width="50" height="50" relative="1" as="geometry">
            <mxPoint x="1076" y="764" as="sourcePoint" />
            <mxPoint x="1158" y="764" as="targetPoint" />
          </mxGeometry>
        </mxCell>
        <mxCell id="uQzWqDFhSTrxmqJ_uvOR-34" value="00000000" style="text;html=1;align=center;verticalAlign=middle;resizable=0;points=[];autosize=1;strokeColor=none;fillColor=none;fontColor=#1D3557;" vertex="1" parent="1">
          <mxGeometry x="961" y="850" width="71" height="26" as="geometry" />
        </mxCell>
        <mxCell id="uQzWqDFhSTrxmqJ_uvOR-35" value="" style="endArrow=classic;html=1;rounded=0;strokeColor=#457B9D;fontColor=#1D3557;fillColor=#A8DADC;entryX=1;entryY=0.5;entryDx=0;entryDy=0;" edge="1" parent="1" target="uQzWqDFhSTrxmqJ_uvOR-30">
          <mxGeometry width="50" height="50" relative="1" as="geometry">
            <mxPoint x="1064" y="944" as="sourcePoint" />
            <mxPoint x="1057" y="909" as="targetPoint" />
          </mxGeometry>
        </mxCell>
        <mxCell id="uQzWqDFhSTrxmqJ_uvOR-37" value="" style="endArrow=classic;html=1;rounded=0;strokeColor=#457B9D;fontColor=#1D3557;fillColor=#A8DADC;entryX=0.153;entryY=1.003;entryDx=0;entryDy=0;entryPerimeter=0;" edge="1" parent="1">
          <mxGeometry width="50" height="50" relative="1" as="geometry">
            <mxPoint x="789" y="944" as="sourcePoint" />
            <mxPoint x="789" y="878" as="targetPoint" />
          </mxGeometry>
        </mxCell>
        <mxCell id="uQzWqDFhSTrxmqJ_uvOR-38" value="clk" style="text;html=1;align=center;verticalAlign=middle;resizable=0;points=[];autosize=1;strokeColor=none;fillColor=none;fontColor=#1D3557;" vertex="1" parent="1">
          <mxGeometry x="773" y="945" width="33" height="26" as="geometry" />
        </mxCell>
        <mxCell id="kehqsG7V_Jig3M6Y1tac-1" value="transfer_done" style="text;html=1;align=center;verticalAlign=middle;resizable=0;points=[];autosize=1;strokeColor=none;fillColor=none;fontColor=#1D3557;" vertex="1" parent="1">
          <mxGeometry x="1021" y="945" width="92" height="26" as="geometry" />
        </mxCell>
        <mxCell id="kehqsG7V_Jig3M6Y1tac-2" value="1" style="text;html=1;align=center;verticalAlign=middle;resizable=0;points=[];autosize=1;strokeColor=none;fillColor=none;fontColor=#1D3557;" vertex="1" parent="1">
          <mxGeometry x="1051.5" y="725" width="25" height="26" as="geometry" />
        </mxCell>
        <mxCell id="kehqsG7V_Jig3M6Y1tac-3" value="0" style="text;html=1;align=center;verticalAlign=middle;resizable=0;points=[];autosize=1;strokeColor=none;fillColor=none;fontColor=#1D3557;" vertex="1" parent="1">
          <mxGeometry x="1051.5" y="790" width="25" height="26" as="geometry" />
        </mxCell>
        <mxCell id="kehqsG7V_Jig3M6Y1tac-5" value="&lt;pre&gt;&lt;font style=&quot;font-size: 18px;&quot;&gt;&lt;b style=&quot;&quot;&gt;Shift_reg_mosi&lt;/b&gt;&lt;/font&gt;&lt;/pre&gt;" style="text;html=1;align=center;verticalAlign=middle;resizable=0;points=[];autosize=1;strokeColor=none;fillColor=none;fontColor=#1D3557;" vertex="1" parent="1">
          <mxGeometry x="755.5" y="361.5" width="169" height="58" as="geometry" />
        </mxCell>
        <mxCell id="kehqsG7V_Jig3M6Y1tac-6" value="&lt;pre&gt;&lt;font style=&quot;font-size: 18px;&quot;&gt;&lt;b style=&quot;&quot;&gt;Shift_reg_miso&lt;/b&gt;&lt;/font&gt;&lt;/pre&gt;" style="text;html=1;align=center;verticalAlign=middle;resizable=0;points=[];autosize=1;strokeColor=none;fillColor=none;fontColor=#1D3557;" vertex="1" parent="1">
          <mxGeometry x="751.5" y="727.5" width="169" height="58" as="geometry" />
        </mxCell>
        <mxCell id="YbsB2kmN5xl4FzAD4bFD-1" value="&lt;h1&gt;&lt;font style=&quot;font-size: 45px;&quot;&gt;SPI_datapath&lt;/font&gt;&lt;/h1&gt;" style="text;html=1;align=center;verticalAlign=middle;resizable=0;points=[];autosize=1;strokeColor=none;fillColor=none;fontColor=#1D3557;" vertex="1" parent="1">
          <mxGeometry x="1386" y="8" width="303" height="98" as="geometry" />
        </mxCell>
        <mxCell id="KDOrA1aS3TtzgsaFblmu-1" value="" style="endArrow=none;html=1;rounded=0;strokeColor=#457B9D;fontColor=#1D3557;fillColor=#A8DADC;" edge="1" parent="1">
          <mxGeometry width="50" height="50" relative="1" as="geometry">
            <mxPoint x="650" y="324" as="sourcePoint" />
            <mxPoint x="673" y="300" as="targetPoint" />
          </mxGeometry>
        </mxCell>
        <mxCell id="KDOrA1aS3TtzgsaFblmu-2" value="" style="endArrow=none;html=1;rounded=0;strokeColor=#457B9D;fontColor=#1D3557;fillColor=#A8DADC;" edge="1" parent="1">
          <mxGeometry width="50" height="50" relative="1" as="geometry">
            <mxPoint x="1103" y="775" as="sourcePoint" />
            <mxPoint x="1126" y="751" as="targetPoint" />
          </mxGeometry>
        </mxCell>
        <mxCell id="KDOrA1aS3TtzgsaFblmu-3" value="8" style="text;html=1;align=center;verticalAlign=middle;resizable=0;points=[];autosize=1;strokeColor=none;fillColor=none;fontColor=#1D3557;" vertex="1" parent="1">
          <mxGeometry x="1096" y="739" width="25" height="26" as="geometry" />
        </mxCell>
        <mxCell id="KDOrA1aS3TtzgsaFblmu-4" value="8" style="text;html=1;align=center;verticalAlign=middle;resizable=0;points=[];autosize=1;strokeColor=none;fillColor=none;fontColor=#1D3557;" vertex="1" parent="1">
          <mxGeometry x="635" y="284" width="25" height="26" as="geometry" />
        </mxCell>
      </root>
    </mxGraphModel>
  </diagram>
  <diagram id="xo1DQJei-8m_T7uH5qXQ" name="Page-7">
    <mxGraphModel dx="794" dy="559" grid="0" gridSize="10" guides="1" tooltips="1" connect="1" arrows="1" fold="1" page="1" pageScale="1" pageWidth="1700" pageHeight="1100" math="0" shadow="0">
      <root>
        <mxCell id="0" />
        <mxCell id="1" parent="0" />
        <mxCell id="u4bPpzysUWN08GkA6kNY-36" value="" style="rounded=0;whiteSpace=wrap;html=1;strokeColor=#666666;fontColor=#333333;fillColor=#f5f5f5;dashed=1;" parent="1" vertex="1">
          <mxGeometry x="617" y="273" width="506" height="562" as="geometry" />
        </mxCell>
        <mxCell id="u4bPpzysUWN08GkA6kNY-2" value="" style="endArrow=classic;html=1;rounded=0;strokeColor=#457B9D;fontColor=#1D3557;fillColor=#A8DADC;" parent="1" edge="1">
          <mxGeometry width="50" height="50" relative="1" as="geometry">
            <mxPoint x="617" y="614" as="sourcePoint" />
            <mxPoint x="769" y="614" as="targetPoint" />
          </mxGeometry>
        </mxCell>
        <mxCell id="u4bPpzysUWN08GkA6kNY-4" value="" style="ellipse;whiteSpace=wrap;html=1;aspect=fixed;strokeColor=#457B9D;fontColor=#1D3557;fillColor=#A8DADC;" parent="1" vertex="1">
          <mxGeometry x="767" y="582" width="64" height="64" as="geometry" />
        </mxCell>
        <mxCell id="u4bPpzysUWN08GkA6kNY-5" value="&lt;font style=&quot;font-size: 25px;&quot;&gt;=&lt;/font&gt;" style="text;html=1;align=center;verticalAlign=middle;whiteSpace=wrap;rounded=0;fontColor=#1D3557;" parent="1" vertex="1">
          <mxGeometry x="769" y="599" width="60" height="30" as="geometry" />
        </mxCell>
        <mxCell id="u4bPpzysUWN08GkA6kNY-6" value="" style="endArrow=classic;html=1;rounded=0;strokeColor=#457B9D;fontColor=#1D3557;fillColor=#A8DADC;entryX=0.5;entryY=0;entryDx=0;entryDy=0;" parent="1" edge="1">
          <mxGeometry width="50" height="50" relative="1" as="geometry">
            <mxPoint x="798" y="479" as="sourcePoint" />
            <mxPoint x="800" y="582" as="targetPoint" />
          </mxGeometry>
        </mxCell>
        <mxCell id="u4bPpzysUWN08GkA6kNY-7" value="" style="endArrow=none;html=1;rounded=0;strokeColor=#457B9D;fontColor=#1D3557;fillColor=#A8DADC;" parent="1" edge="1">
          <mxGeometry width="50" height="50" relative="1" as="geometry">
            <mxPoint x="687" y="629" as="sourcePoint" />
            <mxPoint x="717" y="599" as="targetPoint" />
          </mxGeometry>
        </mxCell>
        <mxCell id="u4bPpzysUWN08GkA6kNY-8" value="" style="endArrow=none;html=1;rounded=0;strokeColor=#457B9D;fontColor=#1D3557;fillColor=#A8DADC;" parent="1" edge="1">
          <mxGeometry width="50" height="50" relative="1" as="geometry">
            <mxPoint x="784" y="534" as="sourcePoint" />
            <mxPoint x="814" y="504" as="targetPoint" />
          </mxGeometry>
        </mxCell>
        <mxCell id="u4bPpzysUWN08GkA6kNY-9" value="DATA_WIDTH - 1" style="text;html=1;align=center;verticalAlign=middle;whiteSpace=wrap;rounded=0;fontColor=#1D3557;" parent="1" vertex="1">
          <mxGeometry x="799" y="516" width="106" height="30" as="geometry" />
        </mxCell>
        <mxCell id="u4bPpzysUWN08GkA6kNY-10" value="count" style="text;html=1;align=center;verticalAlign=middle;whiteSpace=wrap;rounded=0;fontColor=#1D3557;" parent="1" vertex="1">
          <mxGeometry x="574" y="601.5" width="43" height="25" as="geometry" />
        </mxCell>
        <mxCell id="u4bPpzysUWN08GkA6kNY-11" value="" style="endArrow=classic;html=1;rounded=0;strokeColor=#457B9D;fontColor=#1D3557;fillColor=#A8DADC;entryX=1;entryY=0.5;entryDx=0;entryDy=0;" parent="1" edge="1">
          <mxGeometry width="50" height="50" relative="1" as="geometry">
            <mxPoint x="831" y="615" as="sourcePoint" />
            <mxPoint x="1004" y="478" as="targetPoint" />
            <Array as="points">
              <mxPoint x="1004" y="615" />
            </Array>
          </mxGeometry>
        </mxCell>
        <mxCell id="u4bPpzysUWN08GkA6kNY-12" value="" style="shape=trapezoid;perimeter=trapezoidPerimeter;whiteSpace=wrap;html=1;fixedSize=1;strokeColor=#457B9D;fontColor=#1D3557;fillColor=#A8DADC;rotation=90;" parent="1" vertex="1">
          <mxGeometry x="944" y="414" width="120" height="30" as="geometry" />
        </mxCell>
        <mxCell id="u4bPpzysUWN08GkA6kNY-13" value="" style="endArrow=classic;html=1;rounded=0;strokeColor=#457B9D;fontColor=#1D3557;fillColor=#A8DADC;" parent="1" edge="1">
          <mxGeometry width="50" height="50" relative="1" as="geometry">
            <mxPoint x="1004" y="615" as="sourcePoint" />
            <mxPoint x="1004.5" y="714" as="targetPoint" />
          </mxGeometry>
        </mxCell>
        <mxCell id="u4bPpzysUWN08GkA6kNY-14" value="" style="shape=trapezoid;perimeter=trapezoidPerimeter;whiteSpace=wrap;html=1;fixedSize=1;strokeColor=#457B9D;fontColor=#1D3557;fillColor=#A8DADC;rotation=90;" parent="1" vertex="1">
          <mxGeometry x="947" y="751" width="120" height="30" as="geometry" />
        </mxCell>
        <mxCell id="u4bPpzysUWN08GkA6kNY-15" value="" style="endArrow=classic;html=1;rounded=0;strokeColor=#457B9D;fontColor=#1D3557;fillColor=#A8DADC;" parent="1" edge="1">
          <mxGeometry width="50" height="50" relative="1" as="geometry">
            <mxPoint x="887" y="398" as="sourcePoint" />
            <mxPoint x="990" y="398" as="targetPoint" />
          </mxGeometry>
        </mxCell>
        <mxCell id="u4bPpzysUWN08GkA6kNY-16" value="" style="endArrow=classic;html=1;rounded=0;strokeColor=#457B9D;fontColor=#1D3557;fillColor=#A8DADC;" parent="1" edge="1">
          <mxGeometry width="50" height="50" relative="1" as="geometry">
            <mxPoint x="887" y="447" as="sourcePoint" />
            <mxPoint x="990" y="447" as="targetPoint" />
          </mxGeometry>
        </mxCell>
        <mxCell id="u4bPpzysUWN08GkA6kNY-17" value="" style="endArrow=classic;html=1;rounded=0;strokeColor=#457B9D;fontColor=#1D3557;fillColor=#A8DADC;" parent="1" edge="1">
          <mxGeometry width="50" height="50" relative="1" as="geometry">
            <mxPoint x="890" y="737" as="sourcePoint" />
            <mxPoint x="993" y="737" as="targetPoint" />
          </mxGeometry>
        </mxCell>
        <mxCell id="u4bPpzysUWN08GkA6kNY-18" value="" style="endArrow=classic;html=1;rounded=0;strokeColor=#457B9D;fontColor=#1D3557;fillColor=#A8DADC;" parent="1" edge="1">
          <mxGeometry width="50" height="50" relative="1" as="geometry">
            <mxPoint x="890" y="788" as="sourcePoint" />
            <mxPoint x="993" y="788" as="targetPoint" />
          </mxGeometry>
        </mxCell>
        <mxCell id="u4bPpzysUWN08GkA6kNY-20" value="" style="endArrow=classic;html=1;rounded=0;strokeColor=#457B9D;fontColor=#1D3557;fillColor=#A8DADC;" parent="1" edge="1">
          <mxGeometry width="50" height="50" relative="1" as="geometry">
            <mxPoint x="1019" y="426" as="sourcePoint" />
            <mxPoint x="1122" y="426" as="targetPoint" />
          </mxGeometry>
        </mxCell>
        <mxCell id="u4bPpzysUWN08GkA6kNY-21" value="" style="endArrow=classic;html=1;rounded=0;strokeColor=#457B9D;fontColor=#1D3557;fillColor=#A8DADC;" parent="1" edge="1">
          <mxGeometry width="50" height="50" relative="1" as="geometry">
            <mxPoint x="1022" y="761" as="sourcePoint" />
            <mxPoint x="1125" y="761" as="targetPoint" />
          </mxGeometry>
        </mxCell>
        <mxCell id="u4bPpzysUWN08GkA6kNY-22" value="0" style="text;html=1;align=center;verticalAlign=middle;resizable=0;points=[];autosize=1;strokeColor=none;fillColor=none;fontColor=#1D3557;" parent="1" vertex="1">
          <mxGeometry x="991.5" y="384" width="25" height="26" as="geometry" />
        </mxCell>
        <mxCell id="u4bPpzysUWN08GkA6kNY-23" value="1" style="text;html=1;align=center;verticalAlign=middle;resizable=0;points=[];autosize=1;strokeColor=none;fillColor=none;fontColor=#1D3557;" parent="1" vertex="1">
          <mxGeometry x="991.5" y="435" width="25" height="26" as="geometry" />
        </mxCell>
        <mxCell id="u4bPpzysUWN08GkA6kNY-24" value="0" style="text;html=1;align=center;verticalAlign=middle;resizable=0;points=[];autosize=1;strokeColor=none;fillColor=none;fontColor=#1D3557;" parent="1" vertex="1">
          <mxGeometry x="862" y="384" width="25" height="26" as="geometry" />
        </mxCell>
        <mxCell id="u4bPpzysUWN08GkA6kNY-25" value="1" style="text;html=1;align=center;verticalAlign=middle;resizable=0;points=[];autosize=1;strokeColor=none;fillColor=none;fontColor=#1D3557;" parent="1" vertex="1">
          <mxGeometry x="862" y="437" width="25" height="26" as="geometry" />
        </mxCell>
        <mxCell id="u4bPpzysUWN08GkA6kNY-26" value="0" style="text;html=1;align=center;verticalAlign=middle;resizable=0;points=[];autosize=1;strokeColor=none;fillColor=none;fontColor=#1D3557;" parent="1" vertex="1">
          <mxGeometry x="867" y="725" width="25" height="26" as="geometry" />
        </mxCell>
        <mxCell id="u4bPpzysUWN08GkA6kNY-27" value="1" style="text;html=1;align=center;verticalAlign=middle;resizable=0;points=[];autosize=1;strokeColor=none;fillColor=none;fontColor=#1D3557;" parent="1" vertex="1">
          <mxGeometry x="865" y="778" width="25" height="26" as="geometry" />
        </mxCell>
        <mxCell id="u4bPpzysUWN08GkA6kNY-28" value="1" style="text;html=1;align=center;verticalAlign=middle;resizable=0;points=[];autosize=1;strokeColor=none;fillColor=none;fontColor=#1D3557;" parent="1" vertex="1">
          <mxGeometry x="994.5" y="725" width="25" height="26" as="geometry" />
        </mxCell>
        <mxCell id="u4bPpzysUWN08GkA6kNY-30" value="0" style="text;html=1;align=center;verticalAlign=middle;resizable=0;points=[];autosize=1;strokeColor=none;fillColor=none;fontColor=#1D3557;" parent="1" vertex="1">
          <mxGeometry x="994.5" y="775" width="25" height="26" as="geometry" />
        </mxCell>
        <mxCell id="u4bPpzysUWN08GkA6kNY-32" value="transfer_done" style="text;html=1;align=center;verticalAlign=middle;resizable=0;points=[];autosize=1;strokeColor=none;fillColor=none;fontColor=#1D3557;" parent="1" vertex="1">
          <mxGeometry x="1121" y="414" width="92" height="26" as="geometry" />
        </mxCell>
        <mxCell id="u4bPpzysUWN08GkA6kNY-33" value="busy" style="text;html=1;align=center;verticalAlign=middle;resizable=0;points=[];autosize=1;strokeColor=none;fillColor=none;fontColor=#1D3557;" parent="1" vertex="1">
          <mxGeometry x="1126" y="749" width="43" height="26" as="geometry" />
        </mxCell>
        <mxCell id="u4bPpzysUWN08GkA6kNY-34" value="" style="endArrow=classic;html=1;rounded=0;strokeColor=#457B9D;fontColor=#1D3557;fillColor=#A8DADC;" parent="1" edge="1">
          <mxGeometry width="50" height="50" relative="1" as="geometry">
            <mxPoint x="619" y="308" as="sourcePoint" />
            <mxPoint x="1124" y="308" as="targetPoint" />
          </mxGeometry>
        </mxCell>
        <mxCell id="u4bPpzysUWN08GkA6kNY-35" value="enable" style="text;html=1;align=center;verticalAlign=middle;resizable=0;points=[];autosize=1;strokeColor=none;fillColor=none;fontColor=#1D3557;" parent="1" vertex="1">
          <mxGeometry x="1124" y="296" width="54" height="26" as="geometry" />
        </mxCell>
        <mxCell id="u4bPpzysUWN08GkA6kNY-37" value="start_transfer" style="text;html=1;align=center;verticalAlign=middle;resizable=0;points=[];autosize=1;strokeColor=none;fillColor=none;fontColor=#1D3557;" parent="1" vertex="1">
          <mxGeometry x="528" y="296" width="89" height="26" as="geometry" />
        </mxCell>
        <mxCell id="LgBQyb48lRZV_ogXC1-g-1" value="&lt;h1&gt;&lt;font style=&quot;font-size: 45px;&quot;&gt;SPI_flag_controller&lt;/font&gt;&lt;/h1&gt;" style="text;html=1;align=center;verticalAlign=middle;resizable=0;points=[];autosize=1;strokeColor=none;fillColor=none;fontColor=#1D3557;" parent="1" vertex="1">
          <mxGeometry x="1261" y="10" width="428" height="98" as="geometry" />
        </mxCell>
      </root>
    </mxGraphModel>
  </diagram>
</mxfile>
